<svg xmlns="http://www.w3.org/2000/svg" xmlns:xlink="http://www.w3.org/1999/xlink" width="1920" zoomAndPan="magnify" viewBox="0 0 1440 809.999993" height="1080" preserveAspectRatio="xMidYMid meet" version="1.0"><defs><g/><clipPath id="7a32939f83"><path d="M 0.71875 0.359375 L 198 0.359375 L 198 514.679688 L 0.71875 514.679688 Z M 0.71875 0.359375 " clip-rule="nonzero"/></clipPath><clipPath id="58c7ca4e58"><path d="M 13.394531 0.511719 L 197.785156 5.050781 L 185.238281 514.675781 L 0.847656 510.132812 Z M 13.394531 0.511719 " clip-rule="nonzero"/></clipPath><clipPath id="a7641c5660"><path d="M 16.371094 0.585938 L 194.808594 4.976562 C 196.453125 5.019531 197.75 6.382812 197.710938 8.027344 L 185.316406 511.496094 C 185.277344 513.140625 183.910156 514.441406 182.265625 514.398438 L 3.828125 510.007812 C 2.183594 509.964844 0.882812 508.601562 0.925781 506.957031 L 13.320312 3.488281 C 13.359375 1.84375 14.726562 0.542969 16.371094 0.585938 Z M 16.371094 0.585938 " clip-rule="nonzero"/></clipPath><clipPath id="4afb25a12c"><path d="M 0.71875 0.359375 L 197.761719 0.359375 L 197.761719 514.679688 L 0.71875 514.679688 Z M 0.71875 0.359375 " clip-rule="nonzero"/></clipPath><clipPath id="230e1429cb"><path d="M 13.394531 0.511719 L 197.785156 5.050781 L 185.238281 514.675781 L 0.847656 510.132812 Z M 13.394531 0.511719 " clip-rule="nonzero"/></clipPath><clipPath id="e252759514"><path d="M 16.371094 0.585938 L 194.808594 4.976562 C 196.453125 5.019531 197.75 6.382812 197.710938 8.027344 L 185.316406 511.496094 C 185.277344 513.140625 183.910156 514.441406 182.265625 514.398438 L 3.828125 510.007812 C 2.183594 509.964844 0.882812 508.601562 0.925781 506.957031 L 13.320312 3.488281 C 13.359375 1.84375 14.726562 0.542969 16.371094 0.585938 Z M 16.371094 0.585938 " clip-rule="nonzero"/></clipPath><clipPath id="3b01f80c44"><rect x="0" width="198" y="0" height="515"/></clipPath><clipPath id="3e288a6a5a"><rect x="0" width="198" y="0" height="515"/></clipPath><clipPath id="9fb364b06a"><path d="M 0.679688 0.160156 L 515.71875 0.160156 L 515.71875 113.921875 L 0.679688 113.921875 Z M 0.679688 0.160156 " clip-rule="nonzero"/></clipPath><clipPath id="eedcf8fb01"><path d="M 3.386719 0.3125 L 515.660156 12.925781 L 513.175781 113.839844 L 0.902344 101.226562 Z M 3.386719 0.3125 " clip-rule="nonzero"/></clipPath><clipPath id="29ddf363e6"><path d="M 6.363281 0.386719 L 512.492188 12.847656 C 514.136719 12.890625 515.4375 14.253906 515.398438 15.898438 L 513.058594 110.859375 C 513.019531 112.5 511.652344 113.800781 510.007812 113.761719 L 3.878906 101.300781 C 2.234375 101.261719 0.933594 99.894531 0.976562 98.25 L 3.3125 3.292969 C 3.355469 1.648438 4.71875 0.347656 6.363281 0.386719 Z M 6.363281 0.386719 " clip-rule="nonzero"/></clipPath><clipPath id="541db7268b"><path d="M 0.921875 0.160156 L 515.480469 0.160156 L 515.480469 113.921875 L 0.921875 113.921875 Z M 0.921875 0.160156 " clip-rule="nonzero"/></clipPath><clipPath id="94a99a445a"><path d="M 3.386719 0.3125 L 515.660156 12.925781 L 513.175781 113.839844 L 0.902344 101.226562 Z M 3.386719 0.3125 " clip-rule="nonzero"/></clipPath><clipPath id="339821bc03"><path d="M 6.363281 0.386719 L 512.492188 12.847656 C 514.136719 12.890625 515.4375 14.253906 515.398438 15.898438 L 513.058594 110.859375 C 513.019531 112.5 511.652344 113.800781 510.007812 113.761719 L 3.878906 101.300781 C 2.234375 101.261719 0.933594 99.894531 0.976562 98.25 L 3.3125 3.292969 C 3.355469 1.648438 4.71875 0.347656 6.363281 0.386719 Z M 6.363281 0.386719 " clip-rule="nonzero"/></clipPath><clipPath id="f01e9c75fb"><rect x="0" width="516" y="0" height="114"/></clipPath><clipPath id="844b9b083c"><rect x="0" width="516" y="0" height="114"/></clipPath><clipPath id="fbda4b1bbb"><path d="M 1162 3 L 1421.398438 3 L 1421.398438 725.839844 L 1162 725.839844 Z M 1162 3 " clip-rule="nonzero"/></clipPath><clipPath id="d80dbea5ce"><path d="M 1 0.441406 L 259 0.441406 L 259 722.839844 L 1 722.839844 Z M 1 0.441406 " clip-rule="nonzero"/></clipPath><clipPath id="447bc23ed4"><path d="M 0.894531 15.851562 L 206.195312 0.460938 L 259.191406 707.445312 L 53.894531 722.835938 Z M 0.894531 15.851562 " clip-rule="nonzero"/></clipPath><clipPath id="9b22e9df44"><path d="M 3.867188 15.628906 L 202.882812 0.710938 C 204.519531 0.585938 205.949219 1.816406 206.074219 3.457031 L 258.625 704.503906 C 258.75 706.144531 257.519531 707.570312 255.878906 707.695312 L 56.863281 722.613281 C 55.222656 722.738281 53.792969 721.507812 53.671875 719.867188 L 1.117188 18.820312 C 0.996094 17.179688 2.226562 15.75 3.867188 15.628906 Z M 3.867188 15.628906 " clip-rule="nonzero"/></clipPath><clipPath id="62201b7e19"><path d="M 0 0.441406 L 257.921875 0.441406 L 257.921875 722.839844 L 0 722.839844 Z M 0 0.441406 " clip-rule="nonzero"/></clipPath><clipPath id="787a36844b"><path d="M -0.105469 15.851562 L 205.195312 0.460938 L 258.191406 707.445312 L 52.894531 722.835938 Z M -0.105469 15.851562 " clip-rule="nonzero"/></clipPath><clipPath id="7d5db2629d"><path d="M 2.867188 15.628906 L 201.882812 0.710938 C 203.519531 0.585938 204.949219 1.816406 205.074219 3.457031 L 257.625 704.503906 C 257.75 706.144531 256.519531 707.570312 254.878906 707.695312 L 55.863281 722.613281 C 54.222656 722.738281 52.792969 721.507812 52.671875 719.867188 L 0.117188 18.820312 C -0.00390625 17.179688 1.226562 15.75 2.867188 15.628906 Z M 2.867188 15.628906 " clip-rule="nonzero"/></clipPath><clipPath id="226e3bb085"><rect x="0" width="258" y="0" height="723"/></clipPath><clipPath id="8c64b7450d"><rect x="0" width="260" y="0" height="723"/></clipPath><clipPath id="b0349d498d"><path d="M 0.976562 0.695312 L 298.890625 0.695312 L 298.890625 71.246094 L 0.976562 71.246094 Z M 0.976562 0.695312 " clip-rule="nonzero"/></clipPath><clipPath id="0873c3913e"><path d="M 3.953125 0.695312 L 295.78125 0.695312 C 297.425781 0.695312 298.757812 2.027344 298.757812 3.671875 L 298.757812 68.269531 C 298.757812 69.914062 297.425781 71.246094 295.78125 71.246094 L 3.953125 71.246094 C 2.308594 71.246094 0.976562 69.914062 0.976562 68.269531 L 0.976562 3.671875 C 0.976562 2.027344 2.308594 0.695312 3.953125 0.695312 Z M 3.953125 0.695312 " clip-rule="nonzero"/></clipPath><clipPath id="eef0485ae7"><path d="M 0.976562 0.695312 L 298.890625 0.695312 L 298.890625 71.246094 L 0.976562 71.246094 Z M 0.976562 0.695312 " clip-rule="nonzero"/></clipPath><clipPath id="68c7b18718"><path d="M 3.953125 0.695312 L 295.78125 0.695312 C 297.425781 0.695312 298.757812 2.027344 298.757812 3.671875 L 298.757812 68.269531 C 298.757812 69.914062 297.425781 71.246094 295.78125 71.246094 L 3.953125 71.246094 C 2.308594 71.246094 0.976562 69.914062 0.976562 68.269531 L 0.976562 3.671875 C 0.976562 2.027344 2.308594 0.695312 3.953125 0.695312 Z M 3.953125 0.695312 " clip-rule="nonzero"/></clipPath><clipPath id="b6095823d3"><rect x="0" width="299" y="0" height="72"/></clipPath><clipPath id="28da656051"><rect x="0" width="299" y="0" height="72"/></clipPath><clipPath id="dc995a1a11"><path d="M 0.601562 129 L 202 129 L 202 293 L 0.601562 293 Z M 0.601562 129 " clip-rule="nonzero"/></clipPath><clipPath id="b59d3b6ebc"><path d="M 0.703125 0.425781 L 201 0.425781 L 201 163.367188 L 0.703125 163.367188 Z M 0.703125 0.425781 " clip-rule="nonzero"/></clipPath><clipPath id="eef0f502cc"><path d="M 3.679688 0.425781 L 197.902344 0.425781 C 199.546875 0.425781 200.878906 1.757812 200.878906 3.402344 L 200.878906 160.386719 C 200.878906 162.03125 199.546875 163.367188 197.902344 163.367188 L 3.679688 163.367188 C 2.035156 163.367188 0.703125 162.03125 0.703125 160.386719 L 0.703125 3.402344 C 0.703125 1.757812 2.035156 0.425781 3.679688 0.425781 Z M 3.679688 0.425781 " clip-rule="nonzero"/></clipPath><clipPath id="64c38c6675"><path d="M 0.703125 0.425781 L 201 0.425781 L 201 163.367188 L 0.703125 163.367188 Z M 0.703125 0.425781 " clip-rule="nonzero"/></clipPath><clipPath id="453cd83856"><path d="M 3.679688 0.425781 L 197.902344 0.425781 C 199.546875 0.425781 200.878906 1.757812 200.878906 3.402344 L 200.878906 160.386719 C 200.878906 162.03125 199.546875 163.367188 197.902344 163.367188 L 3.679688 163.367188 C 2.035156 163.367188 0.703125 162.03125 0.703125 160.386719 L 0.703125 3.402344 C 0.703125 1.757812 2.035156 0.425781 3.679688 0.425781 Z M 3.679688 0.425781 " clip-rule="nonzero"/></clipPath><clipPath id="5f1cbfee2e"><rect x="0" width="201" y="0" height="164"/></clipPath><clipPath id="22803abcdb"><rect x="0" width="202" y="0" height="164"/></clipPath><clipPath id="af0d9ecc90"><path d="M 0.601562 272 L 201 272 L 201 650 L 0.601562 650 Z M 0.601562 272 " clip-rule="nonzero"/></clipPath><clipPath id="97bed9c239"><path d="M 0.703125 1.027344 L 200.878906 1.027344 L 200.878906 377.851562 L 0.703125 377.851562 Z M 0.703125 1.027344 " clip-rule="nonzero"/></clipPath><clipPath id="acce957bf0"><path d="M 3.679688 1.027344 L 197.902344 1.027344 C 199.546875 1.027344 200.878906 2.359375 200.878906 4.003906 L 200.878906 374.582031 C 200.878906 376.226562 199.546875 377.5625 197.902344 377.5625 L 3.679688 377.5625 C 2.035156 377.5625 0.703125 376.226562 0.703125 374.582031 L 0.703125 4.003906 C 0.703125 2.359375 2.035156 1.027344 3.679688 1.027344 Z M 3.679688 1.027344 " clip-rule="nonzero"/></clipPath><clipPath id="9d568c22e2"><path d="M 0.703125 0.0273438 L 200.878906 0.0273438 L 200.878906 376.761719 L 0.703125 376.761719 Z M 0.703125 0.0273438 " clip-rule="nonzero"/></clipPath><clipPath id="5467baf7bb"><path d="M 3.679688 0.0273438 L 197.902344 0.0273438 C 199.546875 0.0273438 200.878906 1.359375 200.878906 3.003906 L 200.878906 373.582031 C 200.878906 375.226562 199.546875 376.5625 197.902344 376.5625 L 3.679688 376.5625 C 2.035156 376.5625 0.703125 375.226562 0.703125 373.582031 L 0.703125 3.003906 C 0.703125 1.359375 2.035156 0.0273438 3.679688 0.0273438 Z M 3.679688 0.0273438 " clip-rule="nonzero"/></clipPath><clipPath id="1b65317af3"><rect x="0" width="201" y="0" height="377"/></clipPath><clipPath id="abc2968705"><rect x="0" width="201" y="0" height="378"/></clipPath><clipPath id="4272d87054"><path d="M 3 4 L 201 4 L 201 229 L 3 229 Z M 3 4 " clip-rule="nonzero"/></clipPath><clipPath id="4390982b2a"><path d="M 11.867188 4.050781 L 200.585938 11 L 192.5625 228.832031 L 3.84375 221.882812 Z M 11.867188 4.050781 " clip-rule="nonzero"/></clipPath><clipPath id="b94365b179"><path d="M 14.84375 4.160156 L 197.609375 10.890625 C 199.253906 10.953125 200.535156 12.332031 200.476562 13.976562 L 192.679688 225.695312 C 192.617188 227.339844 191.238281 228.621094 189.59375 228.5625 L 6.828125 221.832031 C 5.183594 221.769531 3.902344 220.390625 3.960938 218.746094 L 11.757812 7.027344 C 11.816406 5.382812 13.199219 4.101562 14.84375 4.160156 Z M 14.84375 4.160156 " clip-rule="nonzero"/></clipPath><clipPath id="7609e5abd5"><path d="M 0.71875 0 L 197.761719 0 L 197.761719 224.800781 L 0.71875 224.800781 Z M 0.71875 0 " clip-rule="nonzero"/></clipPath><clipPath id="7fddb43dec"><path d="M 8.867188 0.0507812 L 197.585938 7 L 189.5625 224.832031 L 0.84375 217.882812 Z M 8.867188 0.0507812 " clip-rule="nonzero"/></clipPath><clipPath id="0c0372738b"><path d="M 11.84375 0.160156 L 194.609375 6.890625 C 196.253906 6.953125 197.535156 8.332031 197.476562 9.976562 L 189.679688 221.695312 C 189.617188 223.339844 188.238281 224.621094 186.59375 224.5625 L 3.828125 217.832031 C 2.183594 217.769531 0.902344 216.390625 0.960938 214.746094 L 8.757812 3.027344 C 8.816406 1.382812 10.199219 0.101562 11.84375 0.160156 Z M 11.84375 0.160156 " clip-rule="nonzero"/></clipPath><clipPath id="a7f185b14c"><rect x="0" width="198" y="0" height="225"/></clipPath><clipPath id="1938a7388f"><path d="M 3 4 L 201 4 L 201 229 L 3 229 Z M 3 4 " clip-rule="nonzero"/></clipPath><clipPath id="242a5a7d83"><path d="M 11.867188 4.050781 L 200.554688 11 L 192.539062 228.652344 L 3.851562 221.703125 Z M 11.867188 4.050781 " clip-rule="nonzero"/></clipPath><clipPath id="a9f14bffcf"><path d="M 11.867188 4.050781 L 200.820312 11.011719 L 192.800781 228.761719 L 3.847656 221.804688 Z M 11.867188 4.050781 " clip-rule="nonzero"/></clipPath><clipPath id="1c2bc9b5ae"><path d="M 14.84375 4.160156 L 197.609375 10.890625 C 199.25 10.953125 200.535156 12.332031 200.476562 13.976562 L 192.679688 225.695312 C 192.617188 227.339844 191.234375 228.621094 189.59375 228.5625 L 6.828125 221.832031 C 5.183594 221.769531 3.902344 220.386719 3.960938 218.746094 L 11.757812 7.027344 C 11.816406 5.382812 13.199219 4.101562 14.84375 4.160156 Z M 14.84375 4.160156 " clip-rule="nonzero"/></clipPath><clipPath id="c96629f376"><path d="M 87 102 L 98 102 L 98 112 L 87 112 Z M 87 102 " clip-rule="nonzero"/></clipPath><clipPath id="a92745fbd9"><path d="M 11.867188 4.050781 L 200.554688 11 L 192.539062 228.652344 L 3.851562 221.703125 Z M 11.867188 4.050781 " clip-rule="nonzero"/></clipPath><clipPath id="09b4eb5ce4"><path d="M 97 104 L 105 104 L 105 113 L 97 113 Z M 97 104 " clip-rule="nonzero"/></clipPath><clipPath id="e8ca215b8e"><path d="M 11.867188 4.050781 L 200.554688 11 L 192.539062 228.652344 L 3.851562 221.703125 Z M 11.867188 4.050781 " clip-rule="nonzero"/></clipPath><clipPath id="80df777bb0"><path d="M 106 102 L 110 102 L 110 113 L 106 113 Z M 106 102 " clip-rule="nonzero"/></clipPath><clipPath id="642e18272c"><path d="M 11.867188 4.050781 L 200.554688 11 L 192.539062 228.652344 L 3.851562 221.703125 Z M 11.867188 4.050781 " clip-rule="nonzero"/></clipPath><clipPath id="4b70f61532"><path d="M 109 105 L 118 105 L 118 113 L 109 113 Z M 109 105 " clip-rule="nonzero"/></clipPath><clipPath id="c9cc067914"><path d="M 11.867188 4.050781 L 200.554688 11 L 192.539062 228.652344 L 3.851562 221.703125 Z M 11.867188 4.050781 " clip-rule="nonzero"/></clipPath><clipPath id="b9383f96d8"><path d="M 82 120 L 91 120 L 91 131 L 82 131 Z M 82 120 " clip-rule="nonzero"/></clipPath><clipPath id="acd72fb894"><path d="M 11.867188 4.050781 L 200.554688 11 L 192.539062 228.652344 L 3.851562 221.703125 Z M 11.867188 4.050781 " clip-rule="nonzero"/></clipPath><clipPath id="726382cad7"><path d="M 91 128 L 94 128 L 94 131 L 91 131 Z M 91 128 " clip-rule="nonzero"/></clipPath><clipPath id="05ca27049c"><path d="M 11.867188 4.050781 L 200.554688 11 L 192.539062 228.652344 L 3.851562 221.703125 Z M 11.867188 4.050781 " clip-rule="nonzero"/></clipPath><clipPath id="92937a2c0f"><path d="M 94 120 L 102 120 L 102 131 L 94 131 Z M 94 120 " clip-rule="nonzero"/></clipPath><clipPath id="f01c4ac3c8"><path d="M 11.867188 4.050781 L 200.554688 11 L 192.539062 228.652344 L 3.851562 221.703125 Z M 11.867188 4.050781 " clip-rule="nonzero"/></clipPath><clipPath id="ef05191df0"><path d="M 102 128 L 106 128 L 106 131 L 102 131 Z M 102 128 " clip-rule="nonzero"/></clipPath><clipPath id="41857cf6fe"><path d="M 11.867188 4.050781 L 200.554688 11 L 192.539062 228.652344 L 3.851562 221.703125 Z M 11.867188 4.050781 " clip-rule="nonzero"/></clipPath><clipPath id="40af607005"><path d="M 106 121 L 115 121 L 115 132 L 106 132 Z M 106 121 " clip-rule="nonzero"/></clipPath><clipPath id="38179b3b9a"><path d="M 11.867188 4.050781 L 200.554688 11 L 192.539062 228.652344 L 3.851562 221.703125 Z M 11.867188 4.050781 " clip-rule="nonzero"/></clipPath><clipPath id="e8de139aae"><path d="M 114 121 L 122 121 L 122 132 L 114 132 Z M 114 121 " clip-rule="nonzero"/></clipPath><clipPath id="10e1bae85e"><path d="M 11.867188 4.050781 L 200.554688 11 L 192.539062 228.652344 L 3.851562 221.703125 Z M 11.867188 4.050781 " clip-rule="nonzero"/></clipPath><clipPath id="04fbe32e79"><rect x="0" width="205" y="0" height="233"/></clipPath><clipPath id="c60163325a"><path d="M 4 4 L 126 4 L 126 88 L 4 88 Z M 4 4 " clip-rule="nonzero"/></clipPath><clipPath id="fc1254a87c"><path d="M 7.460938 4.621094 L 126.253906 8.996094 L 123.347656 87.984375 L 4.554688 83.609375 Z M 7.460938 4.621094 " clip-rule="nonzero"/></clipPath><clipPath id="a74c582e00"><path d="M 10.4375 4.730469 L 123.035156 8.875 C 124.679688 8.9375 125.960938 10.320312 125.902344 11.960938 L 123.210938 85 C 123.152344 86.644531 121.769531 87.925781 120.125 87.867188 L 7.53125 83.71875 C 5.886719 83.660156 4.601562 82.277344 4.664062 80.632812 L 7.351562 7.597656 C 7.414062 5.953125 8.792969 4.667969 10.4375 4.730469 Z M 10.4375 4.730469 " clip-rule="nonzero"/></clipPath><clipPath id="9cf36dfcc1"><path d="M 0.519531 0.558594 L 122 0.558594 L 122 84 L 0.519531 84 Z M 0.519531 0.558594 " clip-rule="nonzero"/></clipPath><clipPath id="5b21828825"><path d="M 3.460938 0.621094 L 122.253906 4.996094 L 119.347656 83.984375 L 0.554688 79.609375 Z M 3.460938 0.621094 " clip-rule="nonzero"/></clipPath><clipPath id="a30d968c76"><path d="M 6.4375 0.730469 L 119.035156 4.875 C 120.679688 4.9375 121.960938 6.320312 121.902344 7.960938 L 119.210938 81 C 119.152344 82.644531 117.769531 83.925781 116.125 83.867188 L 3.53125 79.71875 C 1.886719 79.660156 0.601562 78.277344 0.664062 76.632812 L 3.351562 3.597656 C 3.414062 1.953125 4.792969 0.667969 6.4375 0.730469 Z M 6.4375 0.730469 " clip-rule="nonzero"/></clipPath><clipPath id="81fa63d6d0"><rect x="0" width="122" y="0" height="84"/></clipPath><clipPath id="9755e78edd"><path d="M 4 4 L 126 4 L 126 88 L 4 88 Z M 4 4 " clip-rule="nonzero"/></clipPath><clipPath id="5a5ea1f4b2"><path d="M 7.460938 4.621094 L 126.011719 8.984375 L 123.101562 87.953125 L 4.554688 83.585938 Z M 7.460938 4.621094 " clip-rule="nonzero"/></clipPath><clipPath id="c9b3ad87de"><path d="M 7.460938 4.621094 L 126.171875 8.992188 L 123.261719 88.015625 L 4.550781 83.644531 Z M 7.460938 4.621094 " clip-rule="nonzero"/></clipPath><clipPath id="fe4dc3ba2b"><path d="M 10.4375 4.730469 L 123.035156 8.875 C 124.675781 8.9375 125.960938 10.320312 125.898438 11.960938 L 123.210938 85 C 123.148438 86.644531 121.769531 87.925781 120.125 87.867188 L 7.53125 83.71875 C 5.886719 83.660156 4.601562 82.277344 4.664062 80.632812 L 7.351562 7.597656 C 7.414062 5.953125 8.792969 4.667969 10.4375 4.730469 Z M 10.4375 4.730469 " clip-rule="nonzero"/></clipPath><clipPath id="db1ee21951"><path d="M 45 41 L 54 41 L 54 52 L 45 52 Z M 45 41 " clip-rule="nonzero"/></clipPath><clipPath id="8885638ee9"><path d="M 7.460938 4.621094 L 126.011719 8.984375 L 123.101562 87.953125 L 4.554688 83.585938 Z M 7.460938 4.621094 " clip-rule="nonzero"/></clipPath><clipPath id="116c18ce7d"><path d="M 54 48 L 57 48 L 57 52 L 54 52 Z M 54 48 " clip-rule="nonzero"/></clipPath><clipPath id="30d4e90c14"><path d="M 7.460938 4.621094 L 126.011719 8.984375 L 123.101562 87.953125 L 4.554688 83.585938 Z M 7.460938 4.621094 " clip-rule="nonzero"/></clipPath><clipPath id="0c52e4bc39"><path d="M 57 41 L 66 41 L 66 52 L 57 52 Z M 57 41 " clip-rule="nonzero"/></clipPath><clipPath id="e85d021e7e"><path d="M 7.460938 4.621094 L 126.011719 8.984375 L 123.101562 87.953125 L 4.554688 83.585938 Z M 7.460938 4.621094 " clip-rule="nonzero"/></clipPath><clipPath id="7693aec562"><path d="M 66 49 L 69 49 L 69 52 L 66 52 Z M 66 49 " clip-rule="nonzero"/></clipPath><clipPath id="317094c68f"><path d="M 7.460938 4.621094 L 126.011719 8.984375 L 123.101562 87.953125 L 4.554688 83.585938 Z M 7.460938 4.621094 " clip-rule="nonzero"/></clipPath><clipPath id="83f3a6cab1"><path d="M 69 42 L 78 42 L 78 52 L 69 52 Z M 69 42 " clip-rule="nonzero"/></clipPath><clipPath id="89ab68c210"><path d="M 7.460938 4.621094 L 126.011719 8.984375 L 123.101562 87.953125 L 4.554688 83.585938 Z M 7.460938 4.621094 " clip-rule="nonzero"/></clipPath><clipPath id="9c7e37e267"><path d="M 77 42 L 86 42 L 86 53 L 77 53 Z M 77 42 " clip-rule="nonzero"/></clipPath><clipPath id="11e4d40665"><path d="M 7.460938 4.621094 L 126.011719 8.984375 L 123.101562 87.953125 L 4.554688 83.585938 Z M 7.460938 4.621094 " clip-rule="nonzero"/></clipPath><clipPath id="c137df6644"><rect x="0" width="130" y="0" height="92"/></clipPath><clipPath id="a242e477b4"><path d="M 500 0.320312 L 669 0.320312 L 669 83 L 500 83 Z M 500 0.320312 " clip-rule="nonzero"/></clipPath><clipPath id="aba25fb90d"><path d="M 4 4 L 165 4 L 165 79 L 4 79 Z M 4 4 " clip-rule="nonzero"/></clipPath><clipPath id="f881ef293a"><path d="M 6.859375 4.125 L 165.089844 9.949219 L 162.542969 79.074219 L 4.3125 73.25 Z M 6.859375 4.125 " clip-rule="nonzero"/></clipPath><clipPath id="b1fc0073b7"><path d="M 9.835938 4.234375 L 162.085938 9.839844 C 163.726562 9.902344 165.011719 11.28125 164.949219 12.925781 L 162.625 76.097656 C 162.5625 77.742188 161.183594 79.027344 159.539062 78.964844 L 7.289062 73.359375 C 5.644531 73.296875 4.363281 71.917969 4.421875 70.273438 L 6.75 7.101562 C 6.808594 5.457031 8.191406 4.171875 9.835938 4.234375 Z M 9.835938 4.234375 " clip-rule="nonzero"/></clipPath><clipPath id="06a1f48b17"><path d="M 0.359375 0.160156 L 161 0.160156 L 161 75 L 0.359375 75 Z M 0.359375 0.160156 " clip-rule="nonzero"/></clipPath><clipPath id="246326c4d8"><path d="M 2.859375 0.125 L 161.089844 5.949219 L 158.542969 75.074219 L 0.3125 69.25 Z M 2.859375 0.125 " clip-rule="nonzero"/></clipPath><clipPath id="57fc2220a5"><path d="M 5.835938 0.234375 L 158.085938 5.839844 C 159.726562 5.902344 161.011719 7.28125 160.949219 8.925781 L 158.625 72.097656 C 158.5625 73.742188 157.183594 75.027344 155.539062 74.964844 L 3.289062 69.359375 C 1.644531 69.296875 0.363281 67.917969 0.421875 66.273438 L 2.75 3.101562 C 2.808594 1.457031 4.191406 0.171875 5.835938 0.234375 Z M 5.835938 0.234375 " clip-rule="nonzero"/></clipPath><clipPath id="7236c8a6f5"><rect x="0" width="161" y="0" height="75"/></clipPath><clipPath id="7f8c798ecf"><path d="M 4 4 L 165 4 L 165 79 L 4 79 Z M 4 4 " clip-rule="nonzero"/></clipPath><clipPath id="8e684db80f"><path d="M 6.859375 4.125 L 165.089844 9.949219 L 162.542969 79.097656 L 4.3125 73.269531 Z M 6.859375 4.125 " clip-rule="nonzero"/></clipPath><clipPath id="e42146e1b9"><path d="M 6.859375 4.125 L 165.253906 9.957031 L 162.707031 79.144531 L 4.3125 73.3125 Z M 6.859375 4.125 " clip-rule="nonzero"/></clipPath><clipPath id="7183942450"><path d="M 9.835938 4.234375 L 162.082031 9.839844 C 163.726562 9.902344 165.007812 11.28125 164.949219 12.925781 L 162.621094 76.097656 C 162.5625 77.742188 161.179688 79.023438 159.535156 78.964844 L 7.289062 73.355469 C 5.648438 73.296875 4.363281 71.914062 4.421875 70.269531 L 6.75 7.101562 C 6.8125 5.457031 8.191406 4.171875 9.835938 4.234375 Z M 9.835938 4.234375 " clip-rule="nonzero"/></clipPath><clipPath id="4696066f56"><path d="M 64 36 L 73 36 L 73 47 L 64 47 Z M 64 36 " clip-rule="nonzero"/></clipPath><clipPath id="817823933e"><path d="M 6.859375 4.125 L 165.089844 9.949219 L 162.542969 79.097656 L 4.3125 73.269531 Z M 6.859375 4.125 " clip-rule="nonzero"/></clipPath><clipPath id="9a70f32f55"><path d="M 73 44 L 76 44 L 76 47 L 73 47 Z M 73 44 " clip-rule="nonzero"/></clipPath><clipPath id="c63340b154"><path d="M 6.859375 4.125 L 165.089844 9.949219 L 162.542969 79.097656 L 4.3125 73.269531 Z M 6.859375 4.125 " clip-rule="nonzero"/></clipPath><clipPath id="769317e290"><path d="M 76 36 L 85 36 L 85 47 L 76 47 Z M 76 36 " clip-rule="nonzero"/></clipPath><clipPath id="ef550340a5"><path d="M 6.859375 4.125 L 165.089844 9.949219 L 162.542969 79.097656 L 4.3125 73.269531 Z M 6.859375 4.125 " clip-rule="nonzero"/></clipPath><clipPath id="fe1f59d72c"><path d="M 84 44 L 88 44 L 88 47 L 84 47 Z M 84 44 " clip-rule="nonzero"/></clipPath><clipPath id="485269329b"><path d="M 6.859375 4.125 L 165.089844 9.949219 L 162.542969 79.097656 L 4.3125 73.269531 Z M 6.859375 4.125 " clip-rule="nonzero"/></clipPath><clipPath id="55bb77b3f9"><path d="M 88 37 L 97 37 L 97 48 L 88 48 Z M 88 37 " clip-rule="nonzero"/></clipPath><clipPath id="a27da40ca8"><path d="M 6.859375 4.125 L 165.089844 9.949219 L 162.542969 79.097656 L 4.3125 73.269531 Z M 6.859375 4.125 " clip-rule="nonzero"/></clipPath><clipPath id="be9aa3fbb1"><path d="M 96 37 L 105 37 L 105 48 L 96 48 Z M 96 37 " clip-rule="nonzero"/></clipPath><clipPath id="25c24323a9"><path d="M 6.859375 4.125 L 165.089844 9.949219 L 162.542969 79.097656 L 4.3125 73.269531 Z M 6.859375 4.125 " clip-rule="nonzero"/></clipPath><clipPath id="11466bda5a"><rect x="0" width="169" y="0" height="83"/></clipPath><clipPath id="e454bd8610"><path d="M 3 3 L 118 3 L 118 48 L 3 48 Z M 3 3 " clip-rule="nonzero"/></clipPath><clipPath id="b48a17906e"><path d="M 5.21875 3.789062 L 117.171875 7.914062 L 115.703125 47.828125 L 3.75 43.707031 Z M 5.21875 3.789062 " clip-rule="nonzero"/></clipPath><clipPath id="f5c2496b7f"><path d="M 8.195312 3.898438 L 114.160156 7.800781 C 115.804688 7.863281 117.085938 9.246094 117.027344 10.886719 L 115.773438 44.851562 C 115.714844 46.496094 114.332031 47.777344 112.6875 47.71875 L 6.726562 43.816406 C 5.082031 43.753906 3.800781 42.375 3.859375 40.730469 L 5.109375 6.765625 C 5.171875 5.121094 6.550781 3.839844 8.195312 3.898438 Z M 8.195312 3.898438 " clip-rule="nonzero"/></clipPath><clipPath id="8ec9ffd47b"><path d="M 0.679688 0.71875 L 114.199219 0.71875 L 114.199219 44.878906 L 0.679688 44.878906 Z M 0.679688 0.71875 " clip-rule="nonzero"/></clipPath><clipPath id="e96014b701"><path d="M 2.21875 0.789062 L 114.171875 4.914062 L 112.703125 44.828125 L 0.75 40.707031 Z M 2.21875 0.789062 " clip-rule="nonzero"/></clipPath><clipPath id="7ce19ee8db"><path d="M 5.195312 0.898438 L 111.160156 4.800781 C 112.804688 4.863281 114.085938 6.246094 114.027344 7.886719 L 112.773438 41.851562 C 112.714844 43.496094 111.332031 44.777344 109.6875 44.71875 L 3.726562 40.816406 C 2.082031 40.753906 0.800781 39.375 0.859375 37.730469 L 2.109375 3.765625 C 2.171875 2.121094 3.550781 0.839844 5.195312 0.898438 Z M 5.195312 0.898438 " clip-rule="nonzero"/></clipPath><clipPath id="7f4fbf809a"><rect x="0" width="115" y="0" height="45"/></clipPath><clipPath id="cb72065758"><path d="M 3 3 L 118 3 L 118 48 L 3 48 Z M 3 3 " clip-rule="nonzero"/></clipPath><clipPath id="0aa8724061"><path d="M 5.21875 3.789062 L 117.121094 7.910156 L 115.652344 47.792969 L 3.75 43.671875 Z M 5.21875 3.789062 " clip-rule="nonzero"/></clipPath><clipPath id="87008aa167"><path d="M 5.21875 3.789062 L 117.257812 7.917969 L 115.78125 47.953125 L 3.746094 43.828125 Z M 5.21875 3.789062 " clip-rule="nonzero"/></clipPath><clipPath id="14a98e041f"><path d="M 8.195312 3.898438 L 114.15625 7.800781 C 115.800781 7.863281 117.085938 9.246094 117.023438 10.886719 L 115.773438 44.851562 C 115.714844 46.496094 114.332031 47.777344 112.6875 47.71875 L 6.726562 43.816406 C 5.082031 43.753906 3.800781 42.375 3.859375 40.730469 L 5.109375 6.765625 C 5.171875 5.121094 6.550781 3.839844 8.195312 3.898438 Z M 8.195312 3.898438 " clip-rule="nonzero"/></clipPath><clipPath id="5c2d92a2f1"><path d="M 41 20 L 50 20 L 50 31 L 41 31 Z M 41 20 " clip-rule="nonzero"/></clipPath><clipPath id="f519d08f1b"><path d="M 5.21875 3.789062 L 117.121094 7.910156 L 115.652344 47.792969 L 3.75 43.671875 Z M 5.21875 3.789062 " clip-rule="nonzero"/></clipPath><clipPath id="71bc587467"><path d="M 50 28 L 53 28 L 53 31 L 50 31 Z M 50 28 " clip-rule="nonzero"/></clipPath><clipPath id="d73cbc3698"><path d="M 5.21875 3.789062 L 117.121094 7.910156 L 115.652344 47.792969 L 3.75 43.671875 Z M 5.21875 3.789062 " clip-rule="nonzero"/></clipPath><clipPath id="a681102cd7"><path d="M 53 21 L 61 21 L 61 31 L 53 31 Z M 53 21 " clip-rule="nonzero"/></clipPath><clipPath id="bc9a642d2c"><path d="M 5.21875 3.789062 L 117.121094 7.910156 L 115.652344 47.792969 L 3.75 43.671875 Z M 5.21875 3.789062 " clip-rule="nonzero"/></clipPath><clipPath id="d5c8516837"><path d="M 61 28 L 65 28 L 65 32 L 61 32 Z M 61 28 " clip-rule="nonzero"/></clipPath><clipPath id="b6672445e1"><path d="M 5.21875 3.789062 L 117.121094 7.910156 L 115.652344 47.792969 L 3.75 43.671875 Z M 5.21875 3.789062 " clip-rule="nonzero"/></clipPath><clipPath id="26fab623a2"><path d="M 64 21 L 73 21 L 73 32 L 64 32 Z M 64 21 " clip-rule="nonzero"/></clipPath><clipPath id="2a81c52e15"><path d="M 5.21875 3.789062 L 117.121094 7.910156 L 115.652344 47.792969 L 3.75 43.671875 Z M 5.21875 3.789062 " clip-rule="nonzero"/></clipPath><clipPath id="bd578986f3"><path d="M 73 21 L 81 21 L 81 32 L 73 32 Z M 73 21 " clip-rule="nonzero"/></clipPath><clipPath id="6bfa0fcafd"><path d="M 5.21875 3.789062 L 117.121094 7.910156 L 115.652344 47.792969 L 3.75 43.671875 Z M 5.21875 3.789062 " clip-rule="nonzero"/></clipPath><clipPath id="35c7ee7f9a"><rect x="0" width="121" y="0" height="52"/></clipPath><clipPath id="1ae33c20ec"><path d="M 607 384 L 657 384 L 657 427.253906 L 607 427.253906 Z M 607 384 " clip-rule="nonzero"/></clipPath><clipPath id="e6a0a35419"><path d="M 627 384 L 663 384 L 663 427.253906 L 627 427.253906 Z M 627 384 " clip-rule="nonzero"/></clipPath><clipPath id="f7857e1430"><path d="M 604 374.042969 L 645 374.042969 L 645 414 L 604 414 Z M 604 374.042969 " clip-rule="nonzero"/></clipPath><clipPath id="1498ffab2f"><path d="M 604 374.042969 L 645 374.042969 L 645 415 L 604 415 Z M 604 374.042969 " clip-rule="nonzero"/></clipPath><clipPath id="966e3fffcd"><path d="M 623 374.042969 L 664 374.042969 L 664 414 L 623 414 Z M 623 374.042969 " clip-rule="nonzero"/></clipPath><clipPath id="a89ff8d05c"><path d="M 623 374.042969 L 664.902344 374.042969 L 664.902344 415 L 623 415 Z M 623 374.042969 " clip-rule="nonzero"/></clipPath><clipPath id="1bea7fbf5f"><path d="M 617 80 L 667 80 L 667 123.6875 L 617 123.6875 Z M 617 80 " clip-rule="nonzero"/></clipPath><clipPath id="da3042a1b6"><path d="M 637 80 L 672 80 L 672 123.6875 L 637 123.6875 Z M 637 80 " clip-rule="nonzero"/></clipPath><clipPath id="19c787636b"><path d="M 613.078125 70.476562 L 655 70.476562 L 655 111 L 613.078125 111 Z M 613.078125 70.476562 " clip-rule="nonzero"/></clipPath><clipPath id="9cb0be6e48"><path d="M 632 70.476562 L 674 70.476562 L 674 111 L 632 111 Z M 632 70.476562 " clip-rule="nonzero"/></clipPath><clipPath id="d5f2bf1142"><rect x="0" width="1422" y="0" height="726"/></clipPath></defs><g transform="matrix(1, 0, 0, 1, 9, 40)"><g clip-path="url(#d5f2bf1142)"><g transform="matrix(1, 0, 0, 1, 477, 5)"><g clip-path="url(#3e288a6a5a)"><g clip-path="url(#7a32939f83)"><g clip-path="url(#58c7ca4e58)"><g clip-path="url(#a7641c5660)"><g transform="matrix(1, 0, 0, 1, 0, 0.000000000000042633)"><g clip-path="url(#3b01f80c44)"><g clip-path="url(#4afb25a12c)"><g clip-path="url(#230e1429cb)"><g clip-path="url(#e252759514)"><path fill="#9b9b9b" d="M 13.394531 0.511719 L 197.785156 5.050781 L 185.246094 514.324219 L 0.855469 509.78125 Z M 13.394531 0.511719 " fill-opacity="1" fill-rule="nonzero"/></g></g></g></g></g></g></g></g></g></g><g transform="matrix(1, 0, 0, 1, 664, 22)"><g clip-path="url(#844b9b083c)"><g clip-path="url(#9fb364b06a)"><g clip-path="url(#eedcf8fb01)"><g clip-path="url(#29ddf363e6)"><g transform="matrix(1, 0, 0, 1, 0, 0.000000000000035527)"><g clip-path="url(#f01e9c75fb)"><g clip-path="url(#541db7268b)"><g clip-path="url(#94a99a445a)"><g clip-path="url(#339821bc03)"><path fill="#9b9b9b" d="M 3.386719 0.3125 L 515.3125 12.917969 L 512.828125 113.832031 L 0.902344 101.226562 Z M 3.386719 0.3125 " fill-opacity="1" fill-rule="nonzero"/></g></g></g></g></g></g></g></g></g></g><g clip-path="url(#fbda4b1bbb)"><g transform="matrix(1, 0, 0, 1, 1162, 3)"><g clip-path="url(#8c64b7450d)"><g clip-path="url(#d80dbea5ce)"><g clip-path="url(#447bc23ed4)"><g clip-path="url(#9b22e9df44)"><g transform="matrix(1, 0, 0, 1, 1, 0.000000000000042633)"><g clip-path="url(#226e3bb085)"><g clip-path="url(#62201b7e19)"><g clip-path="url(#787a36844b)"><g clip-path="url(#7d5db2629d)"><path fill="#9b9b9b" d="M -0.105469 15.851562 L 204.84375 0.488281 L 257.839844 707.472656 L 52.894531 722.835938 Z M -0.105469 15.851562 " fill-opacity="1" fill-rule="nonzero"/></g></g></g></g></g></g></g></g></g></g></g><g transform="matrix(1, 0, 0, 1, 186, 400)"><g clip-path="url(#28da656051)"><g clip-path="url(#b0349d498d)"><g clip-path="url(#0873c3913e)"><g transform="matrix(1, 0, 0, 1, 0, 0.000000000000056843)"><g clip-path="url(#b6095823d3)"><g clip-path="url(#eef0485ae7)"><g clip-path="url(#68c7b18718)"><path fill="#9b9b9b" d="M 0.976562 0.695312 L 298.890625 0.695312 L 298.890625 71.246094 L 0.976562 71.246094 Z M 0.976562 0.695312 " fill-opacity="1" fill-rule="nonzero"/></g></g></g></g></g></g></g></g><g clip-path="url(#dc995a1a11)"><g transform="matrix(1, 0, 0, 1, 0, 129)"><g clip-path="url(#22803abcdb)"><g clip-path="url(#b59d3b6ebc)"><g clip-path="url(#eef0f502cc)"><g transform="matrix(1, 0, 0, 1, 0, 0.000000000000028422)"><g clip-path="url(#5f1cbfee2e)"><g clip-path="url(#64c38c6675)"><g clip-path="url(#453cd83856)"><path fill="#9b9b9b" d="M 0.703125 0.425781 L 200.867188 0.425781 L 200.867188 163.367188 L 0.703125 163.367188 Z M 0.703125 0.425781 " fill-opacity="1" fill-rule="nonzero"/></g></g></g></g></g></g></g></g></g><g clip-path="url(#af0d9ecc90)"><g transform="matrix(1, 0, 0, 1, 0, 272)"><g clip-path="url(#abc2968705)"><g clip-path="url(#97bed9c239)"><g clip-path="url(#acce957bf0)"><g transform="matrix(1, 0, 0, 1, 0, 1)"><g clip-path="url(#1b65317af3)"><g clip-path="url(#9d568c22e2)"><g clip-path="url(#5467baf7bb)"><path fill="#9b9b9b" d="M 0.703125 0.0273438 L 200.878906 0.0273438 L 200.878906 376.5 L 0.703125 376.5 Z M 0.703125 0.0273438 " fill-opacity="1" fill-rule="nonzero"/></g></g></g></g></g></g></g></g></g><g transform="matrix(1, 0, 0, 1, 474, 150)"><g clip-path="url(#04fbe32e79)"><g clip-path="url(#4272d87054)"><g clip-path="url(#4390982b2a)"><g clip-path="url(#b94365b179)"><g transform="matrix(1, 0, 0, 1, 3, 4)"><g clip-path="url(#a7f185b14c)"><g clip-path="url(#7609e5abd5)"><g clip-path="url(#7fddb43dec)"><g clip-path="url(#0c0372738b)"><path fill="#ffbd59" d="M 8.867188 0.0507812 L 197.585938 7 L 189.5625 224.832031 L 0.84375 217.882812 Z M 8.867188 0.0507812 " fill-opacity="1" fill-rule="nonzero"/></g></g></g></g></g></g></g></g><g clip-path="url(#1938a7388f)"><g clip-path="url(#242a5a7d83)"><g clip-path="url(#a9f14bffcf)"><g clip-path="url(#1c2bc9b5ae)"><path stroke-linecap="butt" transform="matrix(0.099204, 0.00365324, -0.00365324, 0.099204, 11.867325, 4.051597)" fill="none" stroke-linejoin="miter" d="M 30.002686 -0.0105617 L 1872.323963 -0.010199 C 1888.862628 0.0107717 1902.310937 13.415236 1902.330737 29.991776 L 1902.328427 2164.167557 C 1902.308905 2180.745545 1888.863669 2194.155979 1872.326452 2194.174331 L 30.005175 2194.173968 C 13.427188 2194.154446 0.0167536 2180.70921 -0.00159841 2164.171993 L 0.00071115 29.996212 C -0.0190889 13.419672 13.426146 0.00923835 30.002686 -0.0105617 Z M 30.002686 -0.0105617 " stroke="#000000" stroke-width="16" stroke-opacity="1" stroke-miterlimit="4"/></g></g></g></g><g clip-path="url(#c96629f376)"><g clip-path="url(#a92745fbd9)"><g fill="#ffffff" fill-opacity="1"><g transform="translate(87.846014, 111.651077)"><g><path d="M 9.0625 0.328125 L 7.109375 0.265625 L 6.46875 -1.9375 L 2.84375 -2.0625 L 2.0625 0.078125 L 0.140625 0 L 3.75 -9.328125 L 6.140625 -9.234375 Z M 4.765625 -7.3125 L 3.421875 -3.625 L 6.015625 -3.53125 L 4.9375 -7.3125 Z M 4.765625 -7.3125 "/></g></g></g></g></g><g clip-path="url(#09b4eb5ce4)"><g clip-path="url(#e8ca215b8e)"><g fill="#ffffff" fill-opacity="1"><g transform="translate(97.04915, 111.989987)"><g><path d="M 3.265625 0.265625 C 2.460938 0.234375 1.878906 -0.00390625 1.515625 -0.453125 C 1.148438 -0.910156 0.984375 -1.550781 1.015625 -2.375 L 1.1875 -7.09375 L 2.96875 -7.03125 L 2.796875 -2.53125 C 2.785156 -2.101562 2.867188 -1.78125 3.046875 -1.5625 C 3.222656 -1.351562 3.507812 -1.242188 3.90625 -1.234375 C 4.394531 -1.210938 4.785156 -1.359375 5.078125 -1.671875 C 5.367188 -1.992188 5.523438 -2.503906 5.546875 -3.203125 L 5.6875 -6.921875 L 7.484375 -6.859375 L 7.21875 0.265625 L 5.5 0.203125 L 5.53125 -0.84375 L 5.40625 -0.875 C 5.15625 -0.476562 4.863281 -0.1875 4.53125 0 C 4.195312 0.1875 3.773438 0.273438 3.265625 0.265625 Z M 3.265625 0.265625 "/></g></g></g></g></g><g clip-path="url(#80df777bb0)"><g clip-path="url(#642e18272c)"><g fill="#ffffff" fill-opacity="1"><g transform="translate(105.289991, 112.29346)"><g><path d="M 2.953125 0.25 C 2.316406 0.226562 1.832031 0.0351562 1.5 -0.328125 C 1.175781 -0.691406 1.03125 -1.226562 1.0625 -1.9375 L 1.359375 -9.953125 L 3.140625 -9.875 L 2.84375 -1.921875 C 2.820312 -1.492188 2.992188 -1.273438 3.359375 -1.265625 C 3.460938 -1.265625 3.570312 -1.273438 3.6875 -1.296875 L 3.78125 -1.265625 L 3.890625 0.109375 C 3.796875 0.160156 3.664062 0.195312 3.5 0.21875 C 3.332031 0.25 3.148438 0.257812 2.953125 0.25 Z M 2.953125 0.25 "/></g></g></g></g></g><g clip-path="url(#4b70f61532)"><g clip-path="url(#c9cc067914)"><g fill="#ffffff" fill-opacity="1"><g transform="translate(109.384579, 112.444245)"><g><path d="M 2.78125 0.25 C 2.320312 0.226562 1.925781 0.128906 1.59375 -0.046875 C 1.257812 -0.234375 1.007812 -0.492188 0.84375 -0.828125 C 0.675781 -1.160156 0.601562 -1.554688 0.625 -2.015625 C 0.632812 -2.429688 0.734375 -2.773438 0.921875 -3.046875 C 1.109375 -3.328125 1.394531 -3.554688 1.78125 -3.734375 C 2.175781 -3.910156 2.679688 -4.035156 3.296875 -4.109375 C 3.722656 -4.160156 4.050781 -4.222656 4.28125 -4.296875 C 4.507812 -4.367188 4.660156 -4.453125 4.734375 -4.546875 C 4.804688 -4.648438 4.847656 -4.785156 4.859375 -4.953125 C 4.867188 -5.171875 4.796875 -5.34375 4.640625 -5.46875 C 4.492188 -5.601562 4.234375 -5.675781 3.859375 -5.6875 C 3.460938 -5.707031 3.082031 -5.632812 2.71875 -5.46875 C 2.351562 -5.300781 2.03125 -5.078125 1.75 -4.796875 L 1.625 -4.8125 L 0.921875 -5.953125 C 1.304688 -6.347656 1.757812 -6.644531 2.28125 -6.84375 C 2.8125 -7.050781 3.382812 -7.144531 4 -7.125 C 4.945312 -7.09375 5.625 -6.867188 6.03125 -6.453125 C 6.4375 -6.035156 6.628906 -5.457031 6.609375 -4.71875 L 6.484375 -1.625 C 6.472656 -1.3125 6.609375 -1.148438 6.890625 -1.140625 C 6.992188 -1.140625 7.097656 -1.148438 7.203125 -1.171875 L 7.296875 -1.15625 L 7.375 0.09375 C 7.269531 0.15625 7.128906 0.203125 6.953125 0.234375 C 6.773438 0.273438 6.582031 0.289062 6.375 0.28125 C 5.945312 0.269531 5.613281 0.175781 5.375 0 C 5.144531 -0.164062 4.984375 -0.429688 4.890625 -0.796875 L 4.765625 -0.796875 C 4.390625 -0.0664062 3.726562 0.28125 2.78125 0.25 Z M 3.390625 -1.078125 C 3.804688 -1.066406 4.140625 -1.191406 4.390625 -1.453125 C 4.648438 -1.722656 4.789062 -2.109375 4.8125 -2.609375 L 4.828125 -3.328125 L 4.71875 -3.359375 C 4.601562 -3.285156 4.457031 -3.21875 4.28125 -3.15625 C 4.113281 -3.101562 3.859375 -3.054688 3.515625 -3.015625 C 3.128906 -2.960938 2.847656 -2.863281 2.671875 -2.71875 C 2.492188 -2.570312 2.398438 -2.351562 2.390625 -2.0625 C 2.378906 -1.757812 2.460938 -1.519531 2.640625 -1.34375 C 2.816406 -1.175781 3.066406 -1.085938 3.390625 -1.078125 Z M 3.390625 -1.078125 "/></g></g></g></g></g><g clip-path="url(#b9383f96d8)"><g clip-path="url(#acd72fb894)"><g fill="#ffffff" fill-opacity="1"><g transform="translate(81.483985, 129.893755)"><g><path d="M 5.15625 0.328125 C 4.289062 0.296875 3.53125 0.0859375 2.875 -0.296875 C 2.226562 -0.691406 1.726562 -1.253906 1.375 -1.984375 C 1.03125 -2.722656 0.878906 -3.625 0.921875 -4.6875 C 0.960938 -5.75 1.179688 -6.640625 1.578125 -7.359375 C 1.984375 -8.078125 2.523438 -8.601562 3.203125 -8.9375 C 3.878906 -9.269531 4.648438 -9.421875 5.515625 -9.390625 C 6.429688 -9.359375 7.195312 -9.148438 7.8125 -8.765625 C 8.4375 -8.390625 8.867188 -7.832031 9.109375 -7.09375 L 7.734375 -6.3125 L 7.5625 -6.328125 C 7.375 -6.816406 7.109375 -7.175781 6.765625 -7.40625 C 6.429688 -7.632812 5.992188 -7.757812 5.453125 -7.78125 C 4.671875 -7.8125 4.050781 -7.578125 3.59375 -7.078125 C 3.132812 -6.578125 2.882812 -5.757812 2.84375 -4.625 C 2.800781 -3.5 2.988281 -2.671875 3.40625 -2.140625 C 3.820312 -1.609375 4.421875 -1.328125 5.203125 -1.296875 C 6.429688 -1.253906 7.210938 -1.820312 7.546875 -3 L 7.703125 -2.984375 L 9.046875 -2.21875 C 8.753906 -1.332031 8.285156 -0.675781 7.640625 -0.25 C 7.003906 0.175781 6.175781 0.367188 5.15625 0.328125 Z M 5.15625 0.328125 "/></g></g></g></g></g><g clip-path="url(#726382cad7)"><g clip-path="url(#05ca27049c)"><g fill="#ffffff" fill-opacity="1"><g transform="translate(90.745244, 130.234806)"><g><path d="M 1.828125 0.125 C 1.597656 0.113281 1.394531 0.0625 1.21875 -0.03125 C 1.050781 -0.132812 0.921875 -0.265625 0.828125 -0.421875 C 0.742188 -0.585938 0.703125 -0.773438 0.703125 -0.984375 C 0.710938 -1.191406 0.765625 -1.378906 0.859375 -1.546875 C 0.960938 -1.710938 1.101562 -1.835938 1.28125 -1.921875 C 1.46875 -2.015625 1.675781 -2.054688 1.90625 -2.046875 C 2.132812 -2.035156 2.332031 -1.976562 2.5 -1.875 C 2.664062 -1.78125 2.789062 -1.648438 2.875 -1.484375 C 2.96875 -1.316406 3.007812 -1.128906 3 -0.921875 C 2.988281 -0.609375 2.875 -0.347656 2.65625 -0.140625 C 2.445312 0.0546875 2.171875 0.144531 1.828125 0.125 Z M 1.828125 0.125 "/></g></g></g></g></g><g clip-path="url(#92937a2c0f)"><g clip-path="url(#f01c4ac3c8)"><g fill="#ffffff" fill-opacity="1"><g transform="translate(94.394207, 130.369181)"><g><path d="M 3.84375 0.28125 C 2.832031 0.238281 2.035156 -0.00390625 1.453125 -0.453125 C 0.878906 -0.910156 0.523438 -1.53125 0.390625 -2.3125 L 1.828125 -2.921875 L 1.984375 -2.890625 C 2.117188 -2.359375 2.328125 -1.96875 2.609375 -1.71875 C 2.898438 -1.46875 3.304688 -1.332031 3.828125 -1.3125 C 4.335938 -1.289062 4.726562 -1.394531 5 -1.625 C 5.28125 -1.851562 5.429688 -2.191406 5.453125 -2.640625 C 5.460938 -3.085938 5.34375 -3.429688 5.09375 -3.671875 C 4.84375 -3.921875 4.457031 -4.054688 3.9375 -4.078125 L 2.515625 -4.125 L 2.5625 -5.59375 L 3.8125 -5.5625 C 4.226562 -5.539062 4.566406 -5.628906 4.828125 -5.828125 C 5.085938 -6.023438 5.222656 -6.320312 5.234375 -6.71875 C 5.253906 -7.101562 5.148438 -7.398438 4.921875 -7.609375 C 4.691406 -7.816406 4.367188 -7.925781 3.953125 -7.9375 C 3.535156 -7.957031 3.160156 -7.875 2.828125 -7.6875 C 2.503906 -7.5 2.226562 -7.238281 2 -6.90625 L 1.859375 -6.890625 L 0.921875 -8.078125 C 1.273438 -8.503906 1.71875 -8.84375 2.25 -9.09375 C 2.78125 -9.351562 3.40625 -9.46875 4.125 -9.4375 C 5.113281 -9.40625 5.859375 -9.171875 6.359375 -8.734375 C 6.867188 -8.304688 7.109375 -7.71875 7.078125 -6.96875 C 7.054688 -6.519531 6.9375 -6.132812 6.71875 -5.8125 C 6.5 -5.5 6.1875 -5.238281 5.78125 -5.03125 L 5.78125 -4.890625 C 6.851562 -4.460938 7.367188 -3.664062 7.328125 -2.5 C 7.296875 -1.914062 7.144531 -1.410156 6.875 -0.984375 C 6.613281 -0.554688 6.226562 -0.226562 5.71875 0 C 5.21875 0.21875 4.59375 0.3125 3.84375 0.28125 Z M 3.84375 0.28125 "/></g></g></g></g></g><g clip-path="url(#ef05191df0)"><g clip-path="url(#41857cf6fe)"><g fill="#ffffff" fill-opacity="1"><g transform="translate(102.208799, 130.656957)"><g><path d="M 1.828125 0.125 C 1.597656 0.113281 1.394531 0.0625 1.21875 -0.03125 C 1.050781 -0.132812 0.921875 -0.265625 0.828125 -0.421875 C 0.742188 -0.585938 0.703125 -0.773438 0.703125 -0.984375 C 0.710938 -1.191406 0.765625 -1.378906 0.859375 -1.546875 C 0.960938 -1.710938 1.101562 -1.835938 1.28125 -1.921875 C 1.46875 -2.015625 1.675781 -2.054688 1.90625 -2.046875 C 2.132812 -2.035156 2.332031 -1.976562 2.5 -1.875 C 2.664062 -1.78125 2.789062 -1.648438 2.875 -1.484375 C 2.96875 -1.316406 3.007812 -1.128906 3 -0.921875 C 2.988281 -0.609375 2.875 -0.347656 2.65625 -0.140625 C 2.445312 0.0546875 2.171875 0.144531 1.828125 0.125 Z M 1.828125 0.125 "/></g></g></g></g></g><g clip-path="url(#40af607005)"><g clip-path="url(#38179b3b9a)"><g fill="#ffffff" fill-opacity="1"><g transform="translate(105.857761, 130.791332)"><g><path d="M 6.421875 0.234375 L 4.625 0.171875 L 4.703125 -1.890625 L 0.40625 -2.046875 L 0.453125 -3.546875 L 4.375 -9.3125 L 6.765625 -9.21875 L 6.546875 -3.328125 L 8 -3.265625 L 7.953125 -1.765625 L 6.5 -1.828125 Z M 2.375 -3.625 L 2.421875 -3.484375 L 4.75 -3.390625 L 4.890625 -7.046875 L 4.75 -7.078125 Z M 2.375 -3.625 "/></g></g></g></g></g><g clip-path="url(#e8de139aae)"><g clip-path="url(#10e1bae85e)"><g fill="#ffffff" fill-opacity="1"><g transform="translate(114.085685, 131.094329)"><g><path d="M 3.84375 0.28125 C 2.832031 0.238281 2.035156 -0.00390625 1.453125 -0.453125 C 0.878906 -0.910156 0.523438 -1.53125 0.390625 -2.3125 L 1.828125 -2.921875 L 1.984375 -2.890625 C 2.117188 -2.359375 2.328125 -1.96875 2.609375 -1.71875 C 2.898438 -1.46875 3.304688 -1.332031 3.828125 -1.3125 C 4.335938 -1.289062 4.726562 -1.394531 5 -1.625 C 5.28125 -1.851562 5.429688 -2.191406 5.453125 -2.640625 C 5.460938 -3.085938 5.34375 -3.429688 5.09375 -3.671875 C 4.84375 -3.921875 4.457031 -4.054688 3.9375 -4.078125 L 2.515625 -4.125 L 2.5625 -5.59375 L 3.8125 -5.5625 C 4.226562 -5.539062 4.566406 -5.628906 4.828125 -5.828125 C 5.085938 -6.023438 5.222656 -6.320312 5.234375 -6.71875 C 5.253906 -7.101562 5.148438 -7.398438 4.921875 -7.609375 C 4.691406 -7.816406 4.367188 -7.925781 3.953125 -7.9375 C 3.535156 -7.957031 3.160156 -7.875 2.828125 -7.6875 C 2.503906 -7.5 2.226562 -7.238281 2 -6.90625 L 1.859375 -6.890625 L 0.921875 -8.078125 C 1.273438 -8.503906 1.71875 -8.84375 2.25 -9.09375 C 2.78125 -9.351562 3.40625 -9.46875 4.125 -9.4375 C 5.113281 -9.40625 5.859375 -9.171875 6.359375 -8.734375 C 6.867188 -8.304688 7.109375 -7.71875 7.078125 -6.96875 C 7.054688 -6.519531 6.9375 -6.132812 6.71875 -5.8125 C 6.5 -5.5 6.1875 -5.238281 5.78125 -5.03125 L 5.78125 -4.890625 C 6.851562 -4.460938 7.367188 -3.664062 7.328125 -2.5 C 7.296875 -1.914062 7.144531 -1.410156 6.875 -0.984375 C 6.613281 -0.554688 6.226562 -0.226562 5.71875 0 C 5.21875 0.21875 4.59375 0.3125 3.84375 0.28125 Z M 3.84375 0.28125 "/></g></g></g></g></g></g></g><g transform="matrix(1, 0, 0, 1, 508, 434)"><g clip-path="url(#c137df6644)"><g clip-path="url(#c60163325a)"><g clip-path="url(#fc1254a87c)"><g clip-path="url(#a74c582e00)"><g transform="matrix(1, 0, 0, 1, 4, 4)"><g clip-path="url(#81fa63d6d0)"><g clip-path="url(#9cf36dfcc1)"><g clip-path="url(#5b21828825)"><g clip-path="url(#a30d968c76)"><path fill="#ffbd59" d="M 3.460938 0.621094 L 121.945312 4.984375 L 119.039062 83.972656 L 0.554688 79.609375 Z M 3.460938 0.621094 " fill-opacity="1" fill-rule="nonzero"/></g></g></g></g></g></g></g></g><g clip-path="url(#9755e78edd)"><g clip-path="url(#5a5ea1f4b2)"><g clip-path="url(#c9b3ad87de)"><g clip-path="url(#fe4dc3ba2b)"><path stroke-linecap="butt" transform="matrix(0.099204, 0.00365323, -0.00365323, 0.099204, 7.462382, 4.620611)" fill="none" stroke-linejoin="miter" d="M 29.990014 0.00299406 L 1165.000799 -0.0164583 C 1181.539467 0.00451229 1194.989225 13.448302 1194.968255 29.986969 L 1194.990392 766.2375 C 1194.97087 782.81549 1181.564955 796.224478 1164.988413 796.244278 L 30.015503 796.22296 C 13.43896 796.24276 -0.0107982 782.798971 0.00872426 766.220981 L -0.0119651 30.009772 C 0.00755734 13.431782 13.412024 -0.0165284 29.990014 0.00299406 Z M 29.990014 0.00299406 " stroke="#000000" stroke-width="16" stroke-opacity="1" stroke-miterlimit="4"/></g></g></g></g><g clip-path="url(#db1ee21951)"><g clip-path="url(#8885638ee9)"><g fill="#ffffff" fill-opacity="1"><g transform="translate(44.680589, 50.594034)"><g><path d="M 5.15625 0.328125 C 4.289062 0.296875 3.53125 0.0859375 2.875 -0.296875 C 2.226562 -0.691406 1.726562 -1.253906 1.375 -1.984375 C 1.03125 -2.722656 0.878906 -3.625 0.921875 -4.6875 C 0.960938 -5.75 1.179688 -6.640625 1.578125 -7.359375 C 1.984375 -8.078125 2.523438 -8.601562 3.203125 -8.9375 C 3.878906 -9.269531 4.648438 -9.421875 5.515625 -9.390625 C 6.429688 -9.359375 7.195312 -9.148438 7.8125 -8.765625 C 8.4375 -8.390625 8.867188 -7.832031 9.109375 -7.09375 L 7.734375 -6.3125 L 7.5625 -6.328125 C 7.375 -6.816406 7.109375 -7.175781 6.765625 -7.40625 C 6.429688 -7.632812 5.992188 -7.757812 5.453125 -7.78125 C 4.671875 -7.8125 4.050781 -7.578125 3.59375 -7.078125 C 3.132812 -6.578125 2.882812 -5.757812 2.84375 -4.625 C 2.800781 -3.5 2.988281 -2.671875 3.40625 -2.140625 C 3.820312 -1.609375 4.421875 -1.328125 5.203125 -1.296875 C 6.429688 -1.253906 7.210938 -1.820312 7.546875 -3 L 7.703125 -2.984375 L 9.046875 -2.21875 C 8.753906 -1.332031 8.285156 -0.675781 7.640625 -0.25 C 7.003906 0.175781 6.175781 0.367188 5.15625 0.328125 Z M 5.15625 0.328125 "/></g></g></g></g></g><g clip-path="url(#116c18ce7d)"><g clip-path="url(#30d4e90c14)"><g fill="#ffffff" fill-opacity="1"><g transform="translate(53.941848, 50.935085)"><g><path d="M 1.828125 0.125 C 1.597656 0.113281 1.394531 0.0625 1.21875 -0.03125 C 1.050781 -0.132812 0.921875 -0.265625 0.828125 -0.421875 C 0.742188 -0.585938 0.703125 -0.773438 0.703125 -0.984375 C 0.710938 -1.191406 0.765625 -1.378906 0.859375 -1.546875 C 0.960938 -1.710938 1.101562 -1.835938 1.28125 -1.921875 C 1.46875 -2.015625 1.675781 -2.054688 1.90625 -2.046875 C 2.132812 -2.035156 2.332031 -1.976562 2.5 -1.875 C 2.664062 -1.78125 2.789062 -1.648438 2.875 -1.484375 C 2.96875 -1.316406 3.007812 -1.128906 3 -0.921875 C 2.988281 -0.609375 2.875 -0.347656 2.65625 -0.140625 C 2.445312 0.0546875 2.171875 0.144531 1.828125 0.125 Z M 1.828125 0.125 "/></g></g></g></g></g><g clip-path="url(#0c52e4bc39)"><g clip-path="url(#e85d021e7e)"><g fill="#ffffff" fill-opacity="1"><g transform="translate(57.590811, 51.06946)"><g><path d="M 3.84375 0.28125 C 2.832031 0.238281 2.035156 -0.00390625 1.453125 -0.453125 C 0.878906 -0.910156 0.523438 -1.53125 0.390625 -2.3125 L 1.828125 -2.921875 L 1.984375 -2.890625 C 2.117188 -2.359375 2.328125 -1.96875 2.609375 -1.71875 C 2.898438 -1.46875 3.304688 -1.332031 3.828125 -1.3125 C 4.335938 -1.289062 4.726562 -1.394531 5 -1.625 C 5.28125 -1.851562 5.429688 -2.191406 5.453125 -2.640625 C 5.460938 -3.085938 5.34375 -3.429688 5.09375 -3.671875 C 4.84375 -3.921875 4.457031 -4.054688 3.9375 -4.078125 L 2.515625 -4.125 L 2.5625 -5.59375 L 3.8125 -5.5625 C 4.226562 -5.539062 4.566406 -5.628906 4.828125 -5.828125 C 5.085938 -6.023438 5.222656 -6.320312 5.234375 -6.71875 C 5.253906 -7.101562 5.148438 -7.398438 4.921875 -7.609375 C 4.691406 -7.816406 4.367188 -7.925781 3.953125 -7.9375 C 3.535156 -7.957031 3.160156 -7.875 2.828125 -7.6875 C 2.503906 -7.5 2.226562 -7.238281 2 -6.90625 L 1.859375 -6.890625 L 0.921875 -8.078125 C 1.273438 -8.503906 1.71875 -8.84375 2.25 -9.09375 C 2.78125 -9.351562 3.40625 -9.46875 4.125 -9.4375 C 5.113281 -9.40625 5.859375 -9.171875 6.359375 -8.734375 C 6.867188 -8.304688 7.109375 -7.71875 7.078125 -6.96875 C 7.054688 -6.519531 6.9375 -6.132812 6.71875 -5.8125 C 6.5 -5.5 6.1875 -5.238281 5.78125 -5.03125 L 5.78125 -4.890625 C 6.851562 -4.460938 7.367188 -3.664062 7.328125 -2.5 C 7.296875 -1.914062 7.144531 -1.410156 6.875 -0.984375 C 6.613281 -0.554688 6.226562 -0.226562 5.71875 0 C 5.21875 0.21875 4.59375 0.3125 3.84375 0.28125 Z M 3.84375 0.28125 "/></g></g></g></g></g><g clip-path="url(#7693aec562)"><g clip-path="url(#317094c68f)"><g fill="#ffffff" fill-opacity="1"><g transform="translate(65.405402, 51.357236)"><g><path d="M 1.828125 0.125 C 1.597656 0.113281 1.394531 0.0625 1.21875 -0.03125 C 1.050781 -0.132812 0.921875 -0.265625 0.828125 -0.421875 C 0.742188 -0.585938 0.703125 -0.773438 0.703125 -0.984375 C 0.710938 -1.191406 0.765625 -1.378906 0.859375 -1.546875 C 0.960938 -1.710938 1.101562 -1.835938 1.28125 -1.921875 C 1.46875 -2.015625 1.675781 -2.054688 1.90625 -2.046875 C 2.132812 -2.035156 2.332031 -1.976562 2.5 -1.875 C 2.664062 -1.78125 2.789062 -1.648438 2.875 -1.484375 C 2.96875 -1.316406 3.007812 -1.128906 3 -0.921875 C 2.988281 -0.609375 2.875 -0.347656 2.65625 -0.140625 C 2.445312 0.0546875 2.171875 0.144531 1.828125 0.125 Z M 1.828125 0.125 "/></g></g></g></g></g><g clip-path="url(#83f3a6cab1)"><g clip-path="url(#89ab68c210)"><g fill="#ffffff" fill-opacity="1"><g transform="translate(69.054365, 51.491611)"><g><path d="M 6.421875 0.234375 L 4.625 0.171875 L 4.703125 -1.890625 L 0.40625 -2.046875 L 0.453125 -3.546875 L 4.375 -9.3125 L 6.765625 -9.21875 L 6.546875 -3.328125 L 8 -3.265625 L 7.953125 -1.765625 L 6.5 -1.828125 Z M 2.375 -3.625 L 2.421875 -3.484375 L 4.75 -3.390625 L 4.890625 -7.046875 L 4.75 -7.078125 Z M 2.375 -3.625 "/></g></g></g></g></g><g clip-path="url(#9c7e37e267)"><g clip-path="url(#11e4d40665)"><g fill="#ffffff" fill-opacity="1"><g transform="translate(77.282289, 51.794608)"><g><path d="M 6.421875 0.234375 L 4.625 0.171875 L 4.703125 -1.890625 L 0.40625 -2.046875 L 0.453125 -3.546875 L 4.375 -9.3125 L 6.765625 -9.21875 L 6.546875 -3.328125 L 8 -3.265625 L 7.953125 -1.765625 L 6.5 -1.828125 Z M 2.375 -3.625 L 2.421875 -3.484375 L 4.75 -3.390625 L 4.890625 -7.046875 L 4.75 -7.078125 Z M 2.375 -3.625 "/></g></g></g></g></g></g></g><g clip-path="url(#a242e477b4)"><g transform="matrix(1, 0, 0, 1, 500, 0.000000000000042633)"><g clip-path="url(#11466bda5a)"><g clip-path="url(#aba25fb90d)"><g clip-path="url(#f881ef293a)"><g clip-path="url(#b1fc0073b7)"><g transform="matrix(1, 0, 0, 1, 4, 4)"><g clip-path="url(#7236c8a6f5)"><g clip-path="url(#06a1f48b17)"><g clip-path="url(#246326c4d8)"><g clip-path="url(#57fc2220a5)"><path fill="#ffbd59" d="M 2.859375 0.125 L 161.089844 5.949219 L 158.542969 75.074219 L 0.3125 69.25 Z M 2.859375 0.125 " fill-opacity="1" fill-rule="nonzero"/></g></g></g></g></g></g></g></g><g clip-path="url(#7f8c798ecf)"><g clip-path="url(#8e684db80f)"><g clip-path="url(#e42146e1b9)"><g clip-path="url(#7183942450)"><path stroke-linecap="butt" transform="matrix(0.099204, 0.00365324, -0.00365324, 0.099204, 6.859707, 4.123946)" fill="none" stroke-linejoin="miter" d="M 30.001428 0.00833369 L 1564.678224 -0.00241583 C 1581.256213 0.0171067 1594.6652 13.42302 1594.685 29.999561 L 1594.666981 666.787898 C 1594.686782 683.364438 1581.241545 696.774873 1564.665004 696.794674 L 29.98676 696.766101 C 13.449542 696.784453 -0.000215687 683.340664 -0.0200158 666.764123 L -0.000549347 30.01511 C 0.0189731 13.437121 13.423439 -0.0111888 30.001428 0.00833369 Z M 30.001428 0.00833369 " stroke="#000000" stroke-width="16" stroke-opacity="1" stroke-miterlimit="4"/></g></g></g></g><g clip-path="url(#4696066f56)"><g clip-path="url(#817823933e)"><g fill="#ffffff" fill-opacity="1"><g transform="translate(63.585637, 45.848991)"><g><path d="M 5.15625 0.328125 C 4.289062 0.296875 3.53125 0.0859375 2.875 -0.296875 C 2.226562 -0.691406 1.726562 -1.253906 1.375 -1.984375 C 1.03125 -2.722656 0.878906 -3.625 0.921875 -4.6875 C 0.960938 -5.75 1.179688 -6.640625 1.578125 -7.359375 C 1.984375 -8.078125 2.523438 -8.601562 3.203125 -8.9375 C 3.878906 -9.269531 4.648438 -9.421875 5.515625 -9.390625 C 6.429688 -9.359375 7.195312 -9.148438 7.8125 -8.765625 C 8.4375 -8.390625 8.867188 -7.832031 9.109375 -7.09375 L 7.734375 -6.3125 L 7.5625 -6.328125 C 7.375 -6.816406 7.109375 -7.175781 6.765625 -7.40625 C 6.429688 -7.632812 5.992188 -7.757812 5.453125 -7.78125 C 4.671875 -7.8125 4.050781 -7.578125 3.59375 -7.078125 C 3.132812 -6.578125 2.882812 -5.757812 2.84375 -4.625 C 2.800781 -3.5 2.988281 -2.671875 3.40625 -2.140625 C 3.820312 -1.609375 4.421875 -1.328125 5.203125 -1.296875 C 6.429688 -1.253906 7.210938 -1.820312 7.546875 -3 L 7.703125 -2.984375 L 9.046875 -2.21875 C 8.753906 -1.332031 8.285156 -0.675781 7.640625 -0.25 C 7.003906 0.175781 6.175781 0.367188 5.15625 0.328125 Z M 5.15625 0.328125 "/></g></g></g></g></g><g clip-path="url(#9a70f32f55)"><g clip-path="url(#c63340b154)"><g fill="#ffffff" fill-opacity="1"><g transform="translate(72.846896, 46.190041)"><g><path d="M 1.828125 0.125 C 1.597656 0.113281 1.394531 0.0625 1.21875 -0.03125 C 1.050781 -0.132812 0.921875 -0.265625 0.828125 -0.421875 C 0.742188 -0.585938 0.703125 -0.773438 0.703125 -0.984375 C 0.710938 -1.191406 0.765625 -1.378906 0.859375 -1.546875 C 0.960938 -1.710938 1.101562 -1.835938 1.28125 -1.921875 C 1.46875 -2.015625 1.675781 -2.054688 1.90625 -2.046875 C 2.132812 -2.035156 2.332031 -1.976562 2.5 -1.875 C 2.664062 -1.78125 2.789062 -1.648438 2.875 -1.484375 C 2.96875 -1.316406 3.007812 -1.128906 3 -0.921875 C 2.988281 -0.609375 2.875 -0.347656 2.65625 -0.140625 C 2.445312 0.0546875 2.171875 0.144531 1.828125 0.125 Z M 1.828125 0.125 "/></g></g></g></g></g><g clip-path="url(#769317e290)"><g clip-path="url(#ef550340a5)"><g fill="#ffffff" fill-opacity="1"><g transform="translate(76.495859, 46.324416)"><g><path d="M 3.84375 0.28125 C 2.832031 0.238281 2.035156 -0.00390625 1.453125 -0.453125 C 0.878906 -0.910156 0.523438 -1.53125 0.390625 -2.3125 L 1.828125 -2.921875 L 1.984375 -2.890625 C 2.117188 -2.359375 2.328125 -1.96875 2.609375 -1.71875 C 2.898438 -1.46875 3.304688 -1.332031 3.828125 -1.3125 C 4.335938 -1.289062 4.726562 -1.394531 5 -1.625 C 5.28125 -1.851562 5.429688 -2.191406 5.453125 -2.640625 C 5.460938 -3.085938 5.34375 -3.429688 5.09375 -3.671875 C 4.84375 -3.921875 4.457031 -4.054688 3.9375 -4.078125 L 2.515625 -4.125 L 2.5625 -5.59375 L 3.8125 -5.5625 C 4.226562 -5.539062 4.566406 -5.628906 4.828125 -5.828125 C 5.085938 -6.023438 5.222656 -6.320312 5.234375 -6.71875 C 5.253906 -7.101562 5.148438 -7.398438 4.921875 -7.609375 C 4.691406 -7.816406 4.367188 -7.925781 3.953125 -7.9375 C 3.535156 -7.957031 3.160156 -7.875 2.828125 -7.6875 C 2.503906 -7.5 2.226562 -7.238281 2 -6.90625 L 1.859375 -6.890625 L 0.921875 -8.078125 C 1.273438 -8.503906 1.71875 -8.84375 2.25 -9.09375 C 2.78125 -9.351562 3.40625 -9.46875 4.125 -9.4375 C 5.113281 -9.40625 5.859375 -9.171875 6.359375 -8.734375 C 6.867188 -8.304688 7.109375 -7.71875 7.078125 -6.96875 C 7.054688 -6.519531 6.9375 -6.132812 6.71875 -5.8125 C 6.5 -5.5 6.1875 -5.238281 5.78125 -5.03125 L 5.78125 -4.890625 C 6.851562 -4.460938 7.367188 -3.664062 7.328125 -2.5 C 7.296875 -1.914062 7.144531 -1.410156 6.875 -0.984375 C 6.613281 -0.554688 6.226562 -0.226562 5.71875 0 C 5.21875 0.21875 4.59375 0.3125 3.84375 0.28125 Z M 3.84375 0.28125 "/></g></g></g></g></g><g clip-path="url(#fe1f59d72c)"><g clip-path="url(#485269329b)"><g fill="#ffffff" fill-opacity="1"><g transform="translate(84.310451, 46.612192)"><g><path d="M 1.828125 0.125 C 1.597656 0.113281 1.394531 0.0625 1.21875 -0.03125 C 1.050781 -0.132812 0.921875 -0.265625 0.828125 -0.421875 C 0.742188 -0.585938 0.703125 -0.773438 0.703125 -0.984375 C 0.710938 -1.191406 0.765625 -1.378906 0.859375 -1.546875 C 0.960938 -1.710938 1.101562 -1.835938 1.28125 -1.921875 C 1.46875 -2.015625 1.675781 -2.054688 1.90625 -2.046875 C 2.132812 -2.035156 2.332031 -1.976562 2.5 -1.875 C 2.664062 -1.78125 2.789062 -1.648438 2.875 -1.484375 C 2.96875 -1.316406 3.007812 -1.128906 3 -0.921875 C 2.988281 -0.609375 2.875 -0.347656 2.65625 -0.140625 C 2.445312 0.0546875 2.171875 0.144531 1.828125 0.125 Z M 1.828125 0.125 "/></g></g></g></g></g><g clip-path="url(#55bb77b3f9)"><g clip-path="url(#a27da40ca8)"><g fill="#ffffff" fill-opacity="1"><g transform="translate(87.959413, 46.746567)"><g><path d="M 6.421875 0.234375 L 4.625 0.171875 L 4.703125 -1.890625 L 0.40625 -2.046875 L 0.453125 -3.546875 L 4.375 -9.3125 L 6.765625 -9.21875 L 6.546875 -3.328125 L 8 -3.265625 L 7.953125 -1.765625 L 6.5 -1.828125 Z M 2.375 -3.625 L 2.421875 -3.484375 L 4.75 -3.390625 L 4.890625 -7.046875 L 4.75 -7.078125 Z M 2.375 -3.625 "/></g></g></g></g></g><g clip-path="url(#be9aa3fbb1)"><g clip-path="url(#25c24323a9)"><g fill="#ffffff" fill-opacity="1"><g transform="translate(96.187337, 47.049564)"><g><path d="M 4.609375 0.3125 C 3.835938 0.28125 3.171875 0.0820312 2.609375 -0.28125 C 2.054688 -0.644531 1.632812 -1.191406 1.34375 -1.921875 C 1.050781 -2.660156 0.925781 -3.582031 0.96875 -4.6875 C 1.007812 -5.800781 1.203125 -6.710938 1.546875 -7.421875 C 1.890625 -8.140625 2.351562 -8.65625 2.9375 -8.96875 C 3.519531 -9.289062 4.195312 -9.4375 4.96875 -9.40625 C 5.75 -9.375 6.414062 -9.175781 6.96875 -8.8125 C 7.519531 -8.457031 7.941406 -7.910156 8.234375 -7.171875 C 8.523438 -6.441406 8.648438 -5.519531 8.609375 -4.40625 C 8.566406 -3.300781 8.375 -2.390625 8.03125 -1.671875 C 7.6875 -0.960938 7.222656 -0.445312 6.640625 -0.125 C 6.066406 0.195312 5.390625 0.34375 4.609375 0.3125 Z M 4.65625 -1.28125 C 5.082031 -1.269531 5.441406 -1.359375 5.734375 -1.546875 C 6.023438 -1.742188 6.253906 -2.082031 6.421875 -2.5625 C 6.597656 -3.039062 6.703125 -3.679688 6.734375 -4.484375 C 6.765625 -5.296875 6.707031 -5.945312 6.5625 -6.4375 C 6.425781 -6.925781 6.222656 -7.273438 5.953125 -7.484375 C 5.679688 -7.703125 5.332031 -7.816406 4.90625 -7.828125 C 4.488281 -7.847656 4.128906 -7.757812 3.828125 -7.5625 C 3.535156 -7.375 3.304688 -7.039062 3.140625 -6.5625 C 2.972656 -6.082031 2.875 -5.4375 2.84375 -4.625 C 2.8125 -3.820312 2.863281 -3.175781 3 -2.6875 C 3.132812 -2.195312 3.335938 -1.84375 3.609375 -1.625 C 3.890625 -1.414062 4.238281 -1.300781 4.65625 -1.28125 Z M 4.65625 -1.28125 "/></g></g></g></g></g></g></g></g><g transform="matrix(1, 0, 0, 1, 559, 113)"><g clip-path="url(#35c7ee7f9a)"><g clip-path="url(#e454bd8610)"><g clip-path="url(#b48a17906e)"><g clip-path="url(#f5c2496b7f)"><g transform="matrix(1, 0, 0, 1, 3, 3)"><g clip-path="url(#7f4fbf809a)"><g clip-path="url(#8ec9ffd47b)"><g clip-path="url(#e96014b701)"><g clip-path="url(#7ce19ee8db)"><path fill="#ffbd59" d="M 2.21875 0.789062 L 114.171875 4.914062 L 112.703125 44.828125 L 0.75 40.707031 Z M 2.21875 0.789062 " fill-opacity="1" fill-rule="nonzero"/></g></g></g></g></g></g></g></g><g clip-path="url(#cb72065758)"><g clip-path="url(#0aa8724061)"><g clip-path="url(#87008aa167)"><g clip-path="url(#14a98e041f)"><path stroke-linecap="butt" transform="matrix(0.099204, 0.00365324, -0.00365324, 0.099204, 5.219938, 3.790515)" fill="none" stroke-linejoin="miter" d="M 29.991876 -0.0165812 L 1098.103679 -0.0137589 C 1114.681668 0.00576356 1128.131426 13.449552 1128.110456 29.988218 L 1128.118227 372.361715 C 1128.138027 388.938255 1114.692791 402.348691 1098.11625 402.368491 L 30.004446 402.365669 C 13.426457 402.346146 0.0174701 388.940232 -0.00233009 372.363692 L -0.0101015 29.990195 C 0.009421 13.412206 13.415335 0.00321898 29.991876 -0.0165812 Z M 29.991876 -0.0165812 " stroke="#000000" stroke-width="16" stroke-opacity="1" stroke-miterlimit="4"/></g></g></g></g><g clip-path="url(#5c2d92a2f1)"><g clip-path="url(#f519d08f1b)"><g fill="#ffffff" fill-opacity="1"><g transform="translate(40.269949, 30.114572)"><g><path d="M 5.15625 0.328125 C 4.289062 0.296875 3.53125 0.0859375 2.875 -0.296875 C 2.226562 -0.691406 1.726562 -1.253906 1.375 -1.984375 C 1.03125 -2.722656 0.878906 -3.625 0.921875 -4.6875 C 0.960938 -5.75 1.179688 -6.640625 1.578125 -7.359375 C 1.984375 -8.078125 2.523438 -8.601562 3.203125 -8.9375 C 3.878906 -9.269531 4.648438 -9.421875 5.515625 -9.390625 C 6.429688 -9.359375 7.195312 -9.148438 7.8125 -8.765625 C 8.4375 -8.390625 8.867188 -7.832031 9.109375 -7.09375 L 7.734375 -6.3125 L 7.5625 -6.328125 C 7.375 -6.816406 7.109375 -7.175781 6.765625 -7.40625 C 6.429688 -7.632812 5.992188 -7.757812 5.453125 -7.78125 C 4.671875 -7.8125 4.050781 -7.578125 3.59375 -7.078125 C 3.132812 -6.578125 2.882812 -5.757812 2.84375 -4.625 C 2.800781 -3.5 2.988281 -2.671875 3.40625 -2.140625 C 3.820312 -1.609375 4.421875 -1.328125 5.203125 -1.296875 C 6.429688 -1.253906 7.210938 -1.820312 7.546875 -3 L 7.703125 -2.984375 L 9.046875 -2.21875 C 8.753906 -1.332031 8.285156 -0.675781 7.640625 -0.25 C 7.003906 0.175781 6.175781 0.367188 5.15625 0.328125 Z M 5.15625 0.328125 "/></g></g></g></g></g><g clip-path="url(#71bc587467)"><g clip-path="url(#d73cbc3698)"><g fill="#ffffff" fill-opacity="1"><g transform="translate(49.531208, 30.455623)"><g><path d="M 1.828125 0.125 C 1.597656 0.113281 1.394531 0.0625 1.21875 -0.03125 C 1.050781 -0.132812 0.921875 -0.265625 0.828125 -0.421875 C 0.742188 -0.585938 0.703125 -0.773438 0.703125 -0.984375 C 0.710938 -1.191406 0.765625 -1.378906 0.859375 -1.546875 C 0.960938 -1.710938 1.101562 -1.835938 1.28125 -1.921875 C 1.46875 -2.015625 1.675781 -2.054688 1.90625 -2.046875 C 2.132812 -2.035156 2.332031 -1.976562 2.5 -1.875 C 2.664062 -1.78125 2.789062 -1.648438 2.875 -1.484375 C 2.96875 -1.316406 3.007812 -1.128906 3 -0.921875 C 2.988281 -0.609375 2.875 -0.347656 2.65625 -0.140625 C 2.445312 0.0546875 2.171875 0.144531 1.828125 0.125 Z M 1.828125 0.125 "/></g></g></g></g></g><g clip-path="url(#a681102cd7)"><g clip-path="url(#bc9a642d2c)"><g fill="#ffffff" fill-opacity="1"><g transform="translate(53.180171, 30.589998)"><g><path d="M 3.84375 0.28125 C 2.832031 0.238281 2.035156 -0.00390625 1.453125 -0.453125 C 0.878906 -0.910156 0.523438 -1.53125 0.390625 -2.3125 L 1.828125 -2.921875 L 1.984375 -2.890625 C 2.117188 -2.359375 2.328125 -1.96875 2.609375 -1.71875 C 2.898438 -1.46875 3.304688 -1.332031 3.828125 -1.3125 C 4.335938 -1.289062 4.726562 -1.394531 5 -1.625 C 5.28125 -1.851562 5.429688 -2.191406 5.453125 -2.640625 C 5.460938 -3.085938 5.34375 -3.429688 5.09375 -3.671875 C 4.84375 -3.921875 4.457031 -4.054688 3.9375 -4.078125 L 2.515625 -4.125 L 2.5625 -5.59375 L 3.8125 -5.5625 C 4.226562 -5.539062 4.566406 -5.628906 4.828125 -5.828125 C 5.085938 -6.023438 5.222656 -6.320312 5.234375 -6.71875 C 5.253906 -7.101562 5.148438 -7.398438 4.921875 -7.609375 C 4.691406 -7.816406 4.367188 -7.925781 3.953125 -7.9375 C 3.535156 -7.957031 3.160156 -7.875 2.828125 -7.6875 C 2.503906 -7.5 2.226562 -7.238281 2 -6.90625 L 1.859375 -6.890625 L 0.921875 -8.078125 C 1.273438 -8.503906 1.71875 -8.84375 2.25 -9.09375 C 2.78125 -9.351562 3.40625 -9.46875 4.125 -9.4375 C 5.113281 -9.40625 5.859375 -9.171875 6.359375 -8.734375 C 6.867188 -8.304688 7.109375 -7.71875 7.078125 -6.96875 C 7.054688 -6.519531 6.9375 -6.132812 6.71875 -5.8125 C 6.5 -5.5 6.1875 -5.238281 5.78125 -5.03125 L 5.78125 -4.890625 C 6.851562 -4.460938 7.367188 -3.664062 7.328125 -2.5 C 7.296875 -1.914062 7.144531 -1.410156 6.875 -0.984375 C 6.613281 -0.554688 6.226562 -0.226562 5.71875 0 C 5.21875 0.21875 4.59375 0.3125 3.84375 0.28125 Z M 3.84375 0.28125 "/></g></g></g></g></g><g clip-path="url(#d5c8516837)"><g clip-path="url(#b6672445e1)"><g fill="#ffffff" fill-opacity="1"><g transform="translate(60.994762, 30.877774)"><g><path d="M 1.828125 0.125 C 1.597656 0.113281 1.394531 0.0625 1.21875 -0.03125 C 1.050781 -0.132812 0.921875 -0.265625 0.828125 -0.421875 C 0.742188 -0.585938 0.703125 -0.773438 0.703125 -0.984375 C 0.710938 -1.191406 0.765625 -1.378906 0.859375 -1.546875 C 0.960938 -1.710938 1.101562 -1.835938 1.28125 -1.921875 C 1.46875 -2.015625 1.675781 -2.054688 1.90625 -2.046875 C 2.132812 -2.035156 2.332031 -1.976562 2.5 -1.875 C 2.664062 -1.78125 2.789062 -1.648438 2.875 -1.484375 C 2.96875 -1.316406 3.007812 -1.128906 3 -0.921875 C 2.988281 -0.609375 2.875 -0.347656 2.65625 -0.140625 C 2.445312 0.0546875 2.171875 0.144531 1.828125 0.125 Z M 1.828125 0.125 "/></g></g></g></g></g><g clip-path="url(#26fab623a2)"><g clip-path="url(#2a81c52e15)"><g fill="#ffffff" fill-opacity="1"><g transform="translate(64.643725, 31.012149)"><g><path d="M 6.421875 0.234375 L 4.625 0.171875 L 4.703125 -1.890625 L 0.40625 -2.046875 L 0.453125 -3.546875 L 4.375 -9.3125 L 6.765625 -9.21875 L 6.546875 -3.328125 L 8 -3.265625 L 7.953125 -1.765625 L 6.5 -1.828125 Z M 2.375 -3.625 L 2.421875 -3.484375 L 4.75 -3.390625 L 4.890625 -7.046875 L 4.75 -7.078125 Z M 2.375 -3.625 "/></g></g></g></g></g><g clip-path="url(#bd578986f3)"><g clip-path="url(#6bfa0fcafd)"><g fill="#ffffff" fill-opacity="1"><g transform="translate(72.871649, 31.315146)"><g><path d="M 0.484375 -0.734375 C 0.503906 -1.253906 0.578125 -1.691406 0.703125 -2.046875 C 0.828125 -2.398438 1.023438 -2.71875 1.296875 -3 C 1.566406 -3.28125 1.941406 -3.585938 2.421875 -3.921875 L 3.734375 -4.78125 C 4.078125 -5.007812 4.347656 -5.210938 4.546875 -5.390625 C 4.753906 -5.566406 4.910156 -5.75 5.015625 -5.9375 C 5.117188 -6.132812 5.175781 -6.359375 5.1875 -6.609375 C 5.195312 -6.992188 5.085938 -7.296875 4.859375 -7.515625 C 4.640625 -7.734375 4.296875 -7.851562 3.828125 -7.875 C 3.378906 -7.882812 2.972656 -7.789062 2.609375 -7.59375 C 2.253906 -7.394531 1.957031 -7.113281 1.71875 -6.75 L 1.59375 -6.71875 L 0.625 -7.90625 C 0.96875 -8.394531 1.414062 -8.78125 1.96875 -9.0625 C 2.53125 -9.34375 3.195312 -9.472656 3.96875 -9.453125 C 4.675781 -9.421875 5.257812 -9.28125 5.71875 -9.03125 C 6.1875 -8.789062 6.523438 -8.460938 6.734375 -8.046875 C 6.953125 -7.628906 7.050781 -7.160156 7.03125 -6.640625 C 7.019531 -6.191406 6.910156 -5.785156 6.703125 -5.421875 C 6.503906 -5.054688 6.234375 -4.722656 5.890625 -4.421875 C 5.554688 -4.128906 5.125 -3.8125 4.59375 -3.46875 L 3.4375 -2.71875 C 3.09375 -2.488281 2.851562 -2.28125 2.71875 -2.09375 C 2.582031 -1.914062 2.507812 -1.707031 2.5 -1.46875 L 6.75 -1.3125 L 6.6875 0.25 L 0.453125 0.015625 Z M 0.484375 -0.734375 "/></g></g></g></g></g></g></g><path fill="#fed9b4" d="M 635.890625 385.101562 L 635.890625 392.011719 L 630.367188 392.011719 L 630.367188 398.921875 L 624.84375 398.921875 L 624.84375 405.832031 L 619.320312 405.832031 L 619.320312 412.742188 L 613.796875 412.742188 L 613.796875 419.652344 L 608.273438 419.652344 L 608.273438 426.5625 L 628.292969 426.5625 L 628.292969 419.652344 L 633.816406 419.652344 L 633.816406 412.742188 L 639.339844 412.742188 L 639.339844 405.832031 L 644.863281 405.832031 L 644.863281 398.921875 L 650.386719 398.921875 L 650.386719 392.011719 L 655.910156 392.011719 L 655.910156 385.101562 Z M 635.890625 385.101562 " fill-opacity="1" fill-rule="nonzero"/><g clip-path="url(#1ae33c20ec)"><path fill="#0b3442" d="M 655.910156 384.410156 L 635.890625 384.410156 C 635.507812 384.410156 635.199219 384.71875 635.199219 385.101562 L 635.199219 391.320312 L 630.367188 391.320312 C 629.984375 391.320312 629.675781 391.628906 629.675781 392.011719 L 629.675781 398.230469 L 624.84375 398.230469 C 624.460938 398.230469 624.152344 398.539062 624.152344 398.921875 L 624.152344 405.140625 L 619.320312 405.140625 C 618.9375 405.140625 618.628906 405.449219 618.628906 405.832031 L 618.628906 412.050781 L 613.796875 412.050781 C 613.414062 412.050781 613.105469 412.359375 613.105469 412.742188 L 613.105469 418.960938 L 608.273438 418.960938 C 607.890625 418.960938 607.582031 419.269531 607.582031 419.652344 L 607.582031 426.5625 C 607.582031 426.945312 607.890625 427.253906 608.273438 427.253906 L 628.292969 427.253906 C 628.675781 427.253906 628.984375 426.945312 628.984375 426.5625 L 628.984375 420.34375 L 633.816406 420.34375 C 634.199219 420.34375 634.507812 420.035156 634.507812 419.652344 L 634.507812 413.433594 L 639.339844 413.433594 C 639.722656 413.433594 640.03125 413.125 640.03125 412.742188 L 640.03125 406.523438 L 644.863281 406.523438 C 645.246094 406.523438 645.554688 406.214844 645.554688 405.832031 L 645.554688 399.613281 L 650.386719 399.613281 C 650.769531 399.613281 651.078125 399.304688 651.078125 398.921875 L 651.078125 392.703125 L 655.910156 392.703125 C 656.292969 392.703125 656.601562 392.394531 656.601562 392.011719 L 656.601562 385.101562 C 656.601562 384.71875 656.292969 384.410156 655.910156 384.410156 Z M 627.605469 425.871094 L 608.960938 425.871094 L 608.960938 420.34375 L 627.605469 420.34375 Z M 633.128906 418.960938 L 614.484375 418.960938 L 614.484375 413.433594 L 633.128906 413.433594 Z M 638.652344 412.050781 L 620.007812 412.050781 L 620.007812 406.523438 L 638.652344 406.523438 Z M 644.175781 405.140625 L 625.53125 405.140625 L 625.53125 399.613281 L 644.175781 399.613281 Z M 649.699219 398.230469 L 631.054688 398.230469 L 631.054688 392.703125 L 649.699219 392.703125 Z M 655.222656 391.320312 L 636.578125 391.320312 L 636.578125 385.792969 L 655.222656 385.792969 Z M 655.222656 391.320312 " fill-opacity="1" fill-rule="nonzero"/></g><path fill="#fbb684" d="M 661.433594 385.101562 L 661.433594 396.847656 L 655.910156 396.847656 L 655.910156 403.757812 L 650.386719 403.757812 L 650.386719 410.667969 L 644.863281 410.667969 L 644.863281 417.578125 L 639.339844 417.578125 L 639.339844 426.5625 L 628.292969 426.5625 L 628.292969 419.652344 L 633.816406 419.652344 L 633.816406 412.742188 L 639.339844 412.742188 L 639.339844 405.832031 L 644.863281 405.832031 L 644.863281 398.921875 L 650.386719 398.921875 L 650.386719 392.011719 L 655.910156 392.011719 L 655.910156 385.101562 Z M 661.433594 385.101562 " fill-opacity="1" fill-rule="nonzero"/><g clip-path="url(#e6a0a35419)"><path fill="#0b3442" d="M 639.339844 427.253906 L 628.292969 427.253906 C 627.914062 427.253906 627.605469 426.945312 627.605469 426.5625 L 627.605469 419.652344 C 627.605469 419.269531 627.914062 418.960938 628.292969 418.960938 L 633.128906 418.960938 L 633.128906 412.742188 C 633.128906 412.359375 633.4375 412.050781 633.816406 412.050781 L 638.652344 412.050781 L 638.652344 405.832031 C 638.652344 405.449219 638.960938 405.140625 639.339844 405.140625 L 644.175781 405.140625 L 644.175781 398.921875 C 644.175781 398.539062 644.484375 398.230469 644.863281 398.230469 L 649.699219 398.230469 L 649.699219 392.011719 C 649.699219 391.628906 650.007812 391.320312 650.386719 391.320312 L 655.222656 391.320312 L 655.222656 385.101562 C 655.222656 384.71875 655.53125 384.410156 655.910156 384.410156 L 661.433594 384.410156 C 661.816406 384.410156 662.125 384.71875 662.125 385.101562 L 662.125 396.847656 C 662.125 397.230469 661.816406 397.539062 661.433594 397.539062 L 656.601562 397.539062 L 656.601562 403.757812 C 656.601562 404.140625 656.292969 404.449219 655.910156 404.449219 L 651.078125 404.449219 L 651.078125 410.667969 C 651.078125 411.050781 650.769531 411.359375 650.386719 411.359375 L 645.554688 411.359375 L 645.554688 417.578125 C 645.554688 417.960938 645.246094 418.269531 644.863281 418.269531 L 640.03125 418.269531 L 640.03125 426.5625 C 640.03125 426.945312 639.722656 427.253906 639.339844 427.253906 Z M 628.984375 425.871094 L 638.652344 425.871094 L 638.652344 417.578125 C 638.652344 417.199219 638.960938 416.890625 639.339844 416.890625 L 644.175781 416.890625 L 644.175781 410.667969 C 644.175781 410.289062 644.484375 409.976562 644.863281 409.976562 L 649.699219 409.976562 L 649.699219 403.757812 C 649.699219 403.378906 650.007812 403.066406 650.386719 403.066406 L 655.222656 403.066406 L 655.222656 396.847656 C 655.222656 396.464844 655.53125 396.15625 655.910156 396.15625 L 660.746094 396.15625 L 660.746094 385.792969 L 656.601562 385.792969 L 656.601562 392.011719 C 656.601562 392.394531 656.292969 392.703125 655.910156 392.703125 L 651.078125 392.703125 L 651.078125 398.921875 C 651.078125 399.304688 650.769531 399.613281 650.386719 399.613281 L 645.554688 399.613281 L 645.554688 405.832031 C 645.554688 406.214844 645.246094 406.523438 644.863281 406.523438 L 640.03125 406.523438 L 640.03125 412.742188 C 640.03125 413.125 639.722656 413.433594 639.339844 413.433594 L 634.507812 413.433594 L 634.507812 419.652344 C 634.507812 420.035156 634.199219 420.34375 633.816406 420.34375 L 628.984375 420.34375 Z M 628.984375 425.871094 " fill-opacity="1" fill-rule="nonzero"/></g><path fill="#d3eef4" d="M 609.652344 406.523438 L 611.722656 406.523438 L 611.722656 419.652344 L 609.652344 419.652344 Z M 609.652344 406.523438 " fill-opacity="1" fill-rule="nonzero"/><path fill="#0b3442" d="M 611.722656 420.34375 L 609.652344 420.34375 C 609.273438 420.34375 608.960938 420.035156 608.960938 419.652344 L 608.960938 406.523438 C 608.960938 406.140625 609.273438 405.832031 609.652344 405.832031 L 611.722656 405.832031 C 612.105469 405.832031 612.414062 406.140625 612.414062 406.523438 L 612.414062 419.652344 C 612.414062 420.035156 612.105469 420.34375 611.722656 420.34375 Z M 610.34375 418.960938 L 611.035156 418.960938 L 611.035156 407.214844 L 610.34375 407.214844 Z M 610.34375 418.960938 " fill-opacity="1" fill-rule="nonzero"/><path fill="#d3eef4" d="M 637.960938 377.5 L 640.03125 377.5 L 640.03125 385.101562 L 637.960938 385.101562 Z M 637.960938 377.5 " fill-opacity="1" fill-rule="nonzero"/><path fill="#0b3442" d="M 640.03125 385.792969 L 637.960938 385.792969 C 637.578125 385.792969 637.269531 385.484375 637.269531 385.101562 L 637.269531 377.5 C 637.269531 377.117188 637.578125 376.808594 637.960938 376.808594 L 640.03125 376.808594 C 640.414062 376.808594 640.722656 377.117188 640.722656 377.5 L 640.722656 385.101562 C 640.722656 385.484375 640.414062 385.792969 640.03125 385.792969 Z M 638.652344 384.410156 L 639.339844 384.410156 L 639.339844 378.191406 L 638.652344 378.191406 Z M 638.652344 384.410156 " fill-opacity="1" fill-rule="nonzero"/><g clip-path="url(#f7857e1430)"><path fill="#d3eef4" d="M 644.175781 376.117188 C 644.175781 375.355469 643.554688 374.734375 642.792969 374.734375 L 636.453125 374.738281 C 635.417969 374.738281 634.4375 375.203125 633.78125 376.007812 L 605.023438 411.253906 C 603.917969 412.671875 605.960938 414.394531 607.164062 413 C 607.164062 413 635.714844 378.007812 635.714844 378.007812 C 635.976562 377.6875 636.371094 377.5 636.785156 377.5 L 642.792969 377.5 C 643.554688 377.5 644.175781 376.882812 644.175781 376.117188 Z M 644.175781 376.117188 " fill-opacity="1" fill-rule="nonzero"/></g><g clip-path="url(#1498ffab2f)"><path fill="#0b3442" d="M 606.089844 414.199219 C 604.410156 414.25 603.367188 412.089844 604.488281 410.816406 C 604.488281 410.816406 633.246094 375.570312 633.246094 375.570312 C 634.035156 374.601562 635.203125 374.046875 636.453125 374.046875 C 636.453125 374.046875 642.792969 374.042969 642.792969 374.042969 C 645.515625 374.117188 645.535156 378.113281 642.792969 378.191406 C 642.792969 378.191406 636.785156 378.191406 636.785156 378.191406 C 636.574219 378.191406 636.382812 378.28125 636.25 378.445312 L 607.699219 413.4375 C 607.304688 413.921875 606.714844 414.199219 606.089844 414.199219 Z M 642.792969 375.425781 C 642.792969 375.425781 636.453125 375.429688 636.453125 375.429688 C 635.621094 375.429688 634.839844 375.800781 634.316406 376.445312 L 605.558594 411.6875 C 605.011719 412.375 606.027344 413.273438 606.628906 412.5625 C 606.628906 412.5625 635.179688 377.570312 635.179688 377.570312 C 635.574219 377.085938 636.160156 376.808594 636.785156 376.808594 C 636.785156 376.808594 642.792969 376.808594 642.792969 376.808594 C 643.6875 376.804688 643.710938 375.4375 642.792969 375.425781 Z M 642.792969 375.425781 " fill-opacity="1" fill-rule="nonzero"/></g><path fill="#d3eef4" d="M 628.710938 406.523438 L 630.78125 406.523438 L 630.78125 419.652344 L 628.710938 419.652344 Z M 628.710938 406.523438 " fill-opacity="1" fill-rule="nonzero"/><path fill="#0b3442" d="M 630.78125 420.34375 L 628.710938 420.34375 C 628.332031 420.34375 628.019531 420.035156 628.019531 419.652344 L 628.019531 406.523438 C 628.019531 406.140625 628.332031 405.832031 628.710938 405.832031 L 630.78125 405.832031 C 631.164062 405.832031 631.472656 406.140625 631.472656 406.523438 L 631.472656 419.652344 C 631.472656 420.035156 631.164062 420.34375 630.78125 420.34375 Z M 629.402344 418.960938 L 630.09375 418.960938 L 630.09375 407.214844 L 629.402344 407.214844 Z M 629.402344 418.960938 " fill-opacity="1" fill-rule="nonzero"/><path fill="#d3eef4" d="M 657.019531 377.5 L 659.089844 377.5 L 659.089844 385.101562 L 657.019531 385.101562 Z M 657.019531 377.5 " fill-opacity="1" fill-rule="nonzero"/><path fill="#0b3442" d="M 659.089844 385.792969 L 657.019531 385.792969 C 656.636719 385.792969 656.328125 385.484375 656.328125 385.101562 L 656.328125 377.5 C 656.328125 377.117188 656.636719 376.808594 657.019531 376.808594 L 659.089844 376.808594 C 659.472656 376.808594 659.78125 377.117188 659.78125 377.5 L 659.78125 385.101562 C 659.78125 385.484375 659.472656 385.792969 659.089844 385.792969 Z M 657.710938 384.410156 L 658.398438 384.410156 L 658.398438 378.191406 L 657.710938 378.191406 Z M 657.710938 384.410156 " fill-opacity="1" fill-rule="nonzero"/><g clip-path="url(#966e3fffcd)"><path fill="#d3eef4" d="M 662.125 374.738281 C 662.125 374.738281 655.515625 374.738281 655.515625 374.738281 C 654.480469 374.738281 653.496094 375.207031 652.84375 376.007812 L 624.082031 411.25 C 622.976562 412.667969 625.019531 414.394531 626.222656 413 C 626.222656 413 654.773438 378.007812 654.773438 378.007812 C 655.035156 377.6875 655.429688 377.5 655.84375 377.5 L 662.125 377.5 C 663.933594 377.460938 663.953125 374.78125 662.125 374.734375 Z M 662.125 374.738281 " fill-opacity="1" fill-rule="nonzero"/></g><g clip-path="url(#a89ff8d05c)"><path fill="#0b3442" d="M 625.148438 414.199219 C 623.46875 414.25 622.425781 412.089844 623.546875 410.8125 C 623.546875 410.8125 652.308594 375.570312 652.308594 375.570312 C 653.097656 374.605469 654.265625 374.050781 655.515625 374.046875 C 655.515625 374.046875 662.125 374.042969 662.125 374.042969 C 664.847656 374.113281 664.867188 378.113281 662.125 378.191406 C 662.125 378.191406 655.84375 378.191406 655.84375 378.191406 C 655.632812 378.191406 655.441406 378.28125 655.308594 378.445312 L 626.757812 413.4375 C 626.363281 413.921875 625.773438 414.199219 625.148438 414.199219 Z M 662.125 375.425781 C 662.125 375.425781 655.515625 375.429688 655.515625 375.429688 C 654.683594 375.429688 653.902344 375.800781 653.378906 376.445312 L 624.617188 411.6875 C 624.070312 412.371094 625.082031 413.277344 625.6875 412.5625 C 625.6875 412.5625 654.238281 377.570312 654.238281 377.570312 C 654.632812 377.085938 655.21875 376.808594 655.84375 376.808594 L 662.125 376.808594 C 663.019531 376.804688 663.042969 375.4375 662.125 375.425781 Z M 662.125 374.738281 L 662.132812 374.738281 Z M 662.125 374.738281 " fill-opacity="1" fill-rule="nonzero"/></g><path fill="#fed9b4" d="M 645.613281 81.53125 L 645.613281 88.441406 L 640.089844 88.441406 L 640.089844 95.351562 L 634.566406 95.351562 L 634.566406 102.265625 L 629.042969 102.265625 L 629.042969 109.175781 L 623.519531 109.175781 L 623.519531 116.085938 L 617.996094 116.085938 L 617.996094 122.996094 L 638.019531 122.996094 L 638.019531 116.085938 L 643.542969 116.085938 L 643.542969 109.175781 L 649.066406 109.175781 L 649.066406 102.265625 L 654.589844 102.265625 L 654.589844 95.351562 L 660.113281 95.351562 L 660.113281 88.441406 L 665.636719 88.441406 L 665.636719 81.53125 Z M 645.613281 81.53125 " fill-opacity="1" fill-rule="nonzero"/><g clip-path="url(#1bea7fbf5f)"><path fill="#0b3442" d="M 665.636719 80.839844 L 645.613281 80.839844 C 645.230469 80.839844 644.921875 81.152344 644.921875 81.53125 L 644.921875 87.753906 L 640.089844 87.753906 C 639.707031 87.753906 639.398438 88.0625 639.398438 88.441406 L 639.398438 94.664062 L 634.566406 94.664062 C 634.1875 94.664062 633.875 94.972656 633.875 95.351562 L 633.875 101.574219 L 629.042969 101.574219 C 628.664062 101.574219 628.351562 101.882812 628.351562 102.265625 L 628.351562 108.484375 L 623.519531 108.484375 C 623.140625 108.484375 622.828125 108.792969 622.828125 109.175781 L 622.828125 115.394531 L 617.996094 115.394531 C 617.617188 115.394531 617.304688 115.703125 617.304688 116.085938 L 617.304688 122.996094 C 617.304688 123.375 617.617188 123.6875 617.996094 123.6875 L 638.019531 123.6875 C 638.398438 123.6875 638.710938 123.375 638.710938 122.996094 L 638.710938 116.773438 L 643.542969 116.773438 C 643.921875 116.773438 644.234375 116.464844 644.234375 116.085938 L 644.234375 109.863281 L 649.066406 109.863281 C 649.449219 109.863281 649.757812 109.554688 649.757812 109.175781 L 649.757812 102.953125 L 654.589844 102.953125 C 654.96875 102.953125 655.277344 102.644531 655.277344 102.265625 L 655.277344 96.042969 L 660.113281 96.042969 C 660.492188 96.042969 660.800781 95.734375 660.800781 95.351562 L 660.800781 89.132812 L 665.636719 89.132812 C 666.015625 89.132812 666.324219 88.824219 666.324219 88.441406 L 666.324219 81.53125 C 666.324219 81.152344 666.015625 80.839844 665.636719 80.839844 Z M 637.328125 122.304688 L 618.6875 122.304688 L 618.6875 116.773438 L 637.328125 116.773438 Z M 642.851562 115.394531 L 624.210938 115.394531 L 624.210938 109.863281 L 642.851562 109.863281 Z M 648.375 108.484375 L 629.734375 108.484375 L 629.734375 102.953125 L 648.375 102.953125 Z M 653.898438 101.574219 L 635.257812 101.574219 L 635.257812 96.042969 L 653.898438 96.042969 Z M 659.421875 94.664062 L 640.78125 94.664062 L 640.78125 89.132812 L 659.421875 89.132812 Z M 664.945312 87.753906 L 646.304688 87.753906 L 646.304688 82.222656 L 664.945312 82.222656 Z M 664.945312 87.753906 " fill-opacity="1" fill-rule="nonzero"/></g><path fill="#fbb684" d="M 671.160156 81.53125 L 671.160156 93.28125 L 665.636719 93.28125 L 665.636719 100.191406 L 660.113281 100.191406 L 660.113281 107.101562 L 654.589844 107.101562 L 654.589844 114.011719 L 649.066406 114.011719 L 649.066406 122.996094 L 638.019531 122.996094 L 638.019531 116.085938 L 643.542969 116.085938 L 643.542969 109.175781 L 649.066406 109.175781 L 649.066406 102.265625 L 654.589844 102.265625 L 654.589844 95.351562 L 660.113281 95.351562 L 660.113281 88.441406 L 665.636719 88.441406 L 665.636719 81.53125 Z M 671.160156 81.53125 " fill-opacity="1" fill-rule="nonzero"/><g clip-path="url(#da3042a1b6)"><path fill="#0b3442" d="M 649.066406 123.6875 L 638.019531 123.6875 C 637.636719 123.6875 637.328125 123.375 637.328125 122.996094 L 637.328125 116.085938 C 637.328125 115.703125 637.636719 115.394531 638.019531 115.394531 L 642.851562 115.394531 L 642.851562 109.175781 C 642.851562 108.792969 643.160156 108.484375 643.542969 108.484375 L 648.375 108.484375 L 648.375 102.265625 C 648.375 101.882812 648.683594 101.574219 649.066406 101.574219 L 653.898438 101.574219 L 653.898438 95.351562 C 653.898438 94.972656 654.207031 94.664062 654.589844 94.664062 L 659.421875 94.664062 L 659.421875 88.441406 C 659.421875 88.0625 659.730469 87.753906 660.113281 87.753906 L 664.945312 87.753906 L 664.945312 81.53125 C 664.945312 81.152344 665.253906 80.839844 665.636719 80.839844 L 671.160156 80.839844 C 671.539062 80.839844 671.847656 81.152344 671.847656 81.53125 L 671.847656 93.28125 C 671.847656 93.664062 671.539062 93.972656 671.160156 93.972656 L 666.324219 93.972656 L 666.324219 100.191406 C 666.324219 100.574219 666.015625 100.882812 665.636719 100.882812 L 660.800781 100.882812 L 660.800781 107.101562 C 660.800781 107.484375 660.492188 107.792969 660.113281 107.792969 L 655.277344 107.792969 L 655.277344 114.011719 C 655.277344 114.394531 654.96875 114.703125 654.589844 114.703125 L 649.757812 114.703125 L 649.757812 122.996094 C 649.757812 123.375 649.449219 123.6875 649.066406 123.6875 Z M 638.710938 122.304688 L 648.375 122.304688 L 648.375 114.011719 C 648.375 113.628906 648.683594 113.320312 649.066406 113.320312 L 653.898438 113.320312 L 653.898438 107.101562 C 653.898438 106.71875 654.207031 106.410156 654.589844 106.410156 L 659.421875 106.410156 L 659.421875 100.191406 C 659.421875 99.808594 659.730469 99.5 660.113281 99.5 L 664.945312 99.5 L 664.945312 93.28125 C 664.945312 92.898438 665.253906 92.589844 665.636719 92.589844 L 670.46875 92.589844 L 670.46875 82.222656 L 666.324219 82.222656 L 666.324219 88.441406 C 666.324219 88.824219 666.015625 89.132812 665.636719 89.132812 L 660.800781 89.132812 L 660.800781 95.351562 C 660.800781 95.734375 660.492188 96.042969 660.113281 96.042969 L 655.277344 96.042969 L 655.277344 102.265625 C 655.277344 102.644531 654.96875 102.953125 654.589844 102.953125 L 649.757812 102.953125 L 649.757812 109.175781 C 649.757812 109.554688 649.449219 109.863281 649.066406 109.863281 L 644.234375 109.863281 L 644.234375 116.085938 C 644.234375 116.464844 643.921875 116.773438 643.542969 116.773438 L 638.710938 116.773438 Z M 638.710938 122.304688 " fill-opacity="1" fill-rule="nonzero"/></g><path fill="#d3eef4" d="M 619.378906 102.953125 L 621.449219 102.953125 L 621.449219 116.085938 L 619.378906 116.085938 Z M 619.378906 102.953125 " fill-opacity="1" fill-rule="nonzero"/><path fill="#0b3442" d="M 621.449219 116.773438 L 619.378906 116.773438 C 618.996094 116.773438 618.6875 116.464844 618.6875 116.085938 L 618.6875 102.953125 C 618.6875 102.574219 618.996094 102.265625 619.378906 102.265625 L 621.449219 102.265625 C 621.828125 102.265625 622.140625 102.574219 622.140625 102.953125 L 622.140625 116.085938 C 622.140625 116.464844 621.828125 116.773438 621.449219 116.773438 Z M 620.066406 115.394531 L 620.757812 115.394531 L 620.757812 103.644531 L 620.066406 103.644531 Z M 620.066406 115.394531 " fill-opacity="1" fill-rule="nonzero"/><path fill="#d3eef4" d="M 647.683594 73.929688 L 649.757812 73.929688 L 649.757812 81.53125 L 647.683594 81.53125 Z M 647.683594 73.929688 " fill-opacity="1" fill-rule="nonzero"/><path fill="#0b3442" d="M 649.757812 82.222656 L 647.683594 82.222656 C 647.304688 82.222656 646.996094 81.914062 646.996094 81.53125 L 646.996094 73.929688 C 646.996094 73.550781 647.304688 73.242188 647.683594 73.242188 L 649.757812 73.242188 C 650.136719 73.242188 650.445312 73.550781 650.445312 73.929688 L 650.445312 81.53125 C 650.445312 81.914062 650.136719 82.222656 649.757812 82.222656 Z M 648.375 80.839844 L 649.066406 80.839844 L 649.066406 74.621094 L 648.375 74.621094 Z M 648.375 80.839844 " fill-opacity="1" fill-rule="nonzero"/><path fill="#d3eef4" d="M 653.898438 72.550781 C 653.898438 71.785156 653.28125 71.167969 652.515625 71.167969 L 646.179688 71.167969 C 645.140625 71.167969 644.160156 71.636719 643.503906 72.4375 L 614.75 107.683594 C 613.640625 109.101562 615.683594 110.828125 616.886719 109.433594 C 616.886719 109.433594 645.4375 74.4375 645.4375 74.4375 C 645.703125 74.117188 646.09375 73.929688 646.507812 73.929688 L 652.519531 73.929688 C 653.28125 73.929688 653.898438 73.3125 653.898438 72.550781 Z M 653.898438 72.550781 " fill-opacity="1" fill-rule="nonzero"/><g clip-path="url(#19c787636b)"><path fill="#0b3442" d="M 615.816406 110.628906 C 614.132812 110.683594 613.09375 108.523438 614.214844 107.246094 C 614.214844 107.246094 642.972656 72 642.972656 72 C 643.761719 71.035156 644.929688 70.476562 646.179688 70.476562 C 646.179688 70.476562 652.519531 70.476562 652.519531 70.476562 C 655.242188 70.550781 655.257812 74.542969 652.519531 74.621094 C 652.519531 74.621094 646.507812 74.621094 646.507812 74.621094 C 646.300781 74.621094 646.105469 74.714844 645.972656 74.875 L 617.421875 109.871094 C 617.03125 110.355469 616.4375 110.632812 615.816406 110.632812 Z M 652.515625 71.859375 C 652.515625 71.859375 646.179688 71.859375 646.179688 71.859375 C 645.34375 71.859375 644.566406 72.230469 644.039062 72.875 L 615.285156 108.121094 C 614.734375 108.808594 615.75 109.703125 616.351562 108.996094 C 616.351562 108.996094 644.90625 74.003906 644.90625 74.003906 C 645.296875 73.519531 645.882812 73.242188 646.507812 73.242188 C 646.507812 73.242188 652.519531 73.242188 652.519531 73.242188 C 653.410156 73.234375 653.433594 71.871094 652.519531 71.859375 Z M 652.515625 71.859375 " fill-opacity="1" fill-rule="nonzero"/></g><path fill="#d3eef4" d="M 638.4375 102.953125 L 640.507812 102.953125 L 640.507812 116.085938 L 638.4375 116.085938 Z M 638.4375 102.953125 " fill-opacity="1" fill-rule="nonzero"/><path fill="#0b3442" d="M 640.507812 116.773438 L 638.4375 116.773438 C 638.054688 116.773438 637.746094 116.464844 637.746094 116.085938 L 637.746094 102.953125 C 637.746094 102.574219 638.054688 102.265625 638.4375 102.265625 L 640.507812 102.265625 C 640.886719 102.265625 641.199219 102.574219 641.199219 102.953125 L 641.199219 116.085938 C 641.199219 116.464844 640.886719 116.773438 640.507812 116.773438 Z M 639.125 115.394531 L 639.816406 115.394531 L 639.816406 103.644531 L 639.125 103.644531 Z M 639.125 115.394531 " fill-opacity="1" fill-rule="nonzero"/><path fill="#d3eef4" d="M 666.742188 73.929688 L 668.8125 73.929688 L 668.8125 81.53125 L 666.742188 81.53125 Z M 666.742188 73.929688 " fill-opacity="1" fill-rule="nonzero"/><path fill="#0b3442" d="M 668.8125 82.222656 L 666.742188 82.222656 C 666.359375 82.222656 666.050781 81.914062 666.050781 81.53125 L 666.050781 73.929688 C 666.050781 73.550781 666.359375 73.242188 666.742188 73.242188 L 668.8125 73.242188 C 669.195312 73.242188 669.503906 73.550781 669.503906 73.929688 L 669.503906 81.53125 C 669.503906 81.914062 669.195312 82.222656 668.8125 82.222656 Z M 667.433594 80.839844 L 668.125 80.839844 L 668.125 74.621094 L 667.433594 74.621094 Z M 667.433594 80.839844 " fill-opacity="1" fill-rule="nonzero"/><path fill="#d3eef4" d="M 671.847656 71.167969 C 671.847656 71.167969 665.238281 71.171875 665.238281 71.171875 C 664.203125 71.171875 663.222656 71.636719 662.566406 72.441406 L 633.804688 107.683594 C 632.699219 109.101562 634.742188 110.828125 635.945312 109.429688 C 635.945312 109.429688 664.496094 74.4375 664.496094 74.4375 C 664.757812 74.117188 665.152344 73.929688 665.566406 73.929688 L 671.847656 73.929688 C 673.660156 73.894531 673.679688 71.210938 671.847656 71.167969 Z M 671.847656 71.167969 " fill-opacity="1" fill-rule="nonzero"/><g clip-path="url(#9cb0be6e48)"><path fill="#0b3442" d="M 634.871094 110.628906 C 633.191406 110.683594 632.148438 108.519531 633.273438 107.246094 C 633.273438 107.246094 662.03125 72.003906 662.03125 72.003906 C 662.824219 71.035156 663.992188 70.480469 665.238281 70.480469 C 665.242188 70.480469 671.847656 70.476562 671.851562 70.476562 C 674.570312 70.546875 674.589844 74.546875 671.851562 74.621094 C 671.851562 74.621094 665.566406 74.621094 665.566406 74.621094 C 665.359375 74.621094 665.164062 74.714844 665.035156 74.875 L 636.480469 109.867188 C 636.089844 110.351562 635.496094 110.632812 634.875 110.628906 Z M 671.847656 71.859375 C 671.847656 71.859375 665.238281 71.863281 665.238281 71.863281 C 664.40625 71.863281 663.628906 72.234375 663.101562 72.878906 L 634.339844 108.121094 C 633.792969 108.804688 634.808594 109.707031 635.410156 108.996094 C 635.410156 108.996094 663.960938 74.003906 663.960938 74.003906 C 664.355469 73.519531 664.941406 73.242188 665.566406 73.242188 L 671.851562 73.242188 C 672.742188 73.234375 672.765625 71.867188 671.851562 71.859375 Z M 671.847656 71.167969 L 671.855469 71.167969 Z M 671.847656 71.167969 " fill-opacity="1" fill-rule="nonzero"/></g></g></g></svg>