<?xml version="1.0" encoding="UTF-8" standalone="no"?>
<svg
   width="1920pt"
   height="1080pt"
   viewBox="0 0 1920 1080"
   version="1.1"
   id="svg53"
   sodipodi:docname="Logo - Kopie.svg"
   inkscape:version="1.4 (86a8ad7, 2024-10-11)"
   xmlns:inkscape="http://www.inkscape.org/namespaces/inkscape"
   xmlns:sodipodi="http://sodipodi.sourceforge.net/DTD/sodipodi-0.dtd"
   xmlns="http://www.w3.org/2000/svg"
   xmlns:svg="http://www.w3.org/2000/svg">
  <defs
     id="defs53" />
  <sodipodi:namedview
     id="namedview53"
     pagecolor="#ffffff"
     bordercolor="#000000"
     borderopacity="0.25"
     inkscape:showpageshadow="2"
     inkscape:pageopacity="0.0"
     inkscape:pagecheckerboard="0"
     inkscape:deskcolor="#d1d1d1"
     inkscape:document-units="pt"
     inkscape:zoom="0.39676547"
     inkscape:cx="1078.7229"
     inkscape:cy="496.51498"
     inkscape:window-width="1920"
     inkscape:window-height="1010"
     inkscape:window-x="2286"
     inkscape:window-y="-6"
     inkscape:window-maximized="1"
     inkscape:current-layer="svg53" />
  <g
     id="#253f90ff">
    <path
       fill="#253f90"
       opacity="1.00"
       d=" M 433.83 305.30 C 458.83 303.03 484.04 301.82 509.07 304.35 C 544.23 306.25 578.97 313.54 612.43 324.34 C 684.51 347.98 749.91 390.98 800.95 447.01 C 861.09 512.20 901.47 594.99 917.49 682.11 C 921.88 704.84 923.41 727.96 925.32 750.99 C 856.67 750.96 788.01 751.10 719.36 750.92 C 717.89 715.11 711.80 679.42 700.35 645.43 C 677.28 575.46 632.55 512.56 573.16 468.81 C 546.68 449.25 517.42 433.40 486.40 422.32 C 440.32 405.86 390.57 399.65 341.88 404.49 C 298.72 408.72 256.46 421.64 218.24 442.12 C 147.85 479.61 91.46 542.11 60.24 615.39 C 55.68 626.00 52.06 637.01 47.30 647.54 C 48.55 643.74 49.23 639.80 50.15 635.93 C 60.50 600.99 74.32 567.02 92.20 535.24 C 115.01 494.42 143.83 456.91 177.73 424.68 C 235.56 369.34 308.57 329.81 386.85 312.78 C 402.33 309.26 418.11 307.37 433.83 305.30 Z"
       id="path1" />
    <g
       id="g62">
      <path
         fill="#253f90"
         opacity="1"
         d="m 1662.61,529.76 c 13.41,-2.1 28.03,0.22 39.02,8.57 12.49,9.34 18.69,25.41 18.23,40.71 -0.79,5.93 -0.67,12.78 3.7,17.39 3.45,3.66 10.11,3.47 12.87,-0.94 10.26,-13.91 25.59,-22.8 40.94,-30.05 17.55,-8.4 37.12,-13.82 56.71,-11.83 15.75,1.74 31.47,9.55 40.2,23.14 4.57,6.84 6.74,14.99 7.35,23.13 1.46,15.86 -1.37,31.79 -5.9,46.94 -4.54,15.65 -13.18,29.85 -23.76,42.14 -21.04,24.08 -47.28,42.98 -74.62,59.25 -18.6,11.05 -37.94,20.91 -58.08,28.83 -13.81,5.13 -27.53,10.59 -40.48,17.65 -10.72,5.74 -21.02,12.21 -31.03,19.08 -2.57,1.79 -5.53,3.58 -8.8,2.94 -3.85,-0.42 -6.2,-3.95 -7.4,-7.29 -6.68,-17.34 -16.68,-33.09 -25.7,-49.25 -8.68,-14.06 -16.23,-28.9 -21.24,-44.67 -6.75,-20.44 -10.52,-42.02 -9.56,-63.58 1.1,-21.74 7.66,-42.99 17.76,-62.2 8.02,-15.18 18.51,-29.14 31.38,-40.56 10.89,-9.5 23.93,-17.21 38.41,-19.4 m 38.91,80.58 c -2.61,-1.03 -5.2,-2.08 -7.8,-3.08 1.36,2.52 2.81,4.99 4.25,7.47 -1.76,2.07 -3.46,4.19 -5.09,6.35 2.66,-0.52 5.31,-1.11 7.95,-1.75 1.54,2.3 3.06,4.61 4.59,6.93 0.27,-2.7 0.37,-5.43 1,-8.07 2.51,-1.13 5.25,-1.7 7.87,-2.6 -2.58,-1.07 -5.16,-2.1 -7.72,-3.16 0.14,-2.81 0.21,-5.62 0.32,-8.42 -1.79,2.12 -3.59,4.22 -5.37,6.33 m 34.35,3.7 c -2.55,-0.99 -5.09,-1.98 -7.64,-2.91 1.32,2.44 2.74,4.86 4.16,7.26 -1.79,2.16 -3.55,4.35 -5.29,6.54 2.77,-0.64 5.55,-1.26 8.36,-1.81 1.42,2.31 2.87,4.62 4.32,6.94 0.3,-2.78 0.62,-5.55 0.88,-8.32 2.6,-0.77 5.23,-1.52 7.84,-2.33 -2.49,-1.14 -4.99,-2.23 -7.49,-3.3 -0.02,-2.64 -0.04,-5.27 -0.06,-7.9 -1.7,1.94 -3.4,3.88 -5.08,5.83 m -66.62,9.74 c -2.62,-1.01 -5.21,-2.03 -7.82,-2.99 1.38,2.39 2.81,4.77 4.25,7.15 -1.72,2.18 -3.4,4.4 -5.01,6.67 2.64,-0.65 5.3,-1.3 7.98,-1.9 1.41,2.28 2.91,4.52 4.55,6.66 0.26,-2.61 0.45,-5.23 0.62,-7.84 2.55,-0.85 5.13,-1.64 7.7,-2.5 -2.38,-1.14 -4.77,-2.19 -7.18,-3.19 -0.01,-2.71 -0.03,-5.41 -0.04,-8.1 -1.72,1.99 -3.38,4.02 -5.05,6.04 m 94.01,11.73 c -2.6,-1.06 -5.21,-2.08 -7.83,-3.03 1.38,2.45 2.83,4.87 4.29,7.29 -1.72,2.15 -3.41,4.33 -5.03,6.55 2.63,-0.59 5.27,-1.19 7.9,-1.84 1.52,2.3 3.06,4.6 4.65,6.88 0.24,-2.74 0.44,-5.48 0.63,-8.22 2.6,-0.68 5.21,-1.4 7.8,-2.2 -2.41,-1.25 -4.87,-2.39 -7.32,-3.5 -0.02,-2.58 -0.05,-5.16 -0.06,-7.73 -1.73,1.9 -3.38,3.85 -5.03,5.8 m -114.92,16.32 c -2.56,-0.94 -5.08,-1.9 -7.63,-2.81 1.26,2.41 2.65,4.76 4.08,7.1 -1.69,2.2 -3.4,4.37 -5.03,6.59 2.64,-0.58 5.32,-1.18 7.99,-1.78 1.37,2.22 2.83,4.39 4.5,6.42 0.32,-2.6 0.57,-5.21 0.84,-7.82 2.54,-0.68 5.09,-1.35 7.63,-2.11 -2.33,-1.29 -4.74,-2.4 -7.15,-3.48 -0.02,-2.68 -0.03,-5.35 -0.04,-8.01 -1.74,1.96 -3.46,3.93 -5.19,5.9 m 129.06,15.95 c -2.56,-0.95 -5.08,-1.89 -7.63,-2.8 1.3,2.36 2.67,4.68 4.05,7.01 -1.66,2.2 -3.32,4.4 -4.95,6.62 2.62,-0.61 5.29,-1.22 7.94,-1.86 1.41,2.28 2.89,4.54 4.5,6.71 0.29,-2.7 0.53,-5.4 0.85,-8.08 2.61,-0.71 5.22,-1.45 7.84,-2.2 -2.51,-1.1 -5,-2.2 -7.49,-3.29 0.11,-2.81 0.24,-5.62 0.35,-8.42 -1.81,2.12 -3.63,4.22 -5.46,6.31 m -133.24,19.02 c -2.55,-0.93 -5.07,-1.89 -7.62,-2.76 1.25,2.43 2.61,4.8 4.03,7.14 -1.72,2.13 -3.41,4.28 -4.97,6.52 2.65,-0.6 5.31,-1.22 7.98,-1.79 1.46,2.35 2.95,4.68 4.48,7.01 0.28,-2.78 0.51,-5.56 0.73,-8.34 2.72,-0.81 5.46,-1.56 8.21,-2.33 -2.59,-1.11 -5.18,-2.24 -7.75,-3.36 0.1,-2.73 0.22,-5.46 0.33,-8.17 -1.83,2.01 -3.63,4.05 -5.42,6.08 m 128.99,15.95 c -2.59,-1 -5.17,-2 -7.76,-2.93 1.37,2.43 2.8,4.85 4.26,7.26 -1.81,2.16 -3.58,4.35 -5.29,6.58 2.7,-0.62 5.42,-1.23 8.13,-1.89 1.5,2.25 3.03,4.5 4.72,6.63 0.26,-2.64 0.42,-5.3 0.59,-7.94 2.73,-0.8 5.49,-1.56 8.25,-2.33 -2.6,-1.12 -5.18,-2.22 -7.76,-3.31 0.11,-2.77 0.23,-5.55 0.31,-8.31 -1.86,2.05 -3.65,4.15 -5.45,6.24 m -115.22,16.17 c -2.56,-0.63 -4.94,-1.75 -7.37,-2.68 1.38,2.45 2.79,4.89 4.16,7.37 -1.74,2.07 -3.44,4.18 -5.04,6.35 2.53,-0.56 5.03,-1.25 7.62,-1.6 2.12,1.84 3.29,4.57 4.94,6.84 0.27,-2.77 0.47,-5.55 0.7,-8.32 2.55,-0.71 5.11,-1.45 7.56,-2.52 -2.3,-1.07 -4.62,-2.03 -6.95,-2.96 -0.01,-2.78 0,-5.55 0.02,-8.32 -1.9,1.9 -3.31,4.54 -5.64,5.84 m 94.45,12.03 c -2.47,-0.98 -4.97,-1.95 -7.46,-2.8 1.1,2.42 2.41,4.77 3.79,7.07 -1.64,2.17 -3.31,4.32 -4.95,6.49 2.64,-0.55 5.34,-1.11 8.01,-1.67 1.31,2.24 2.75,4.44 4.55,6.35 0.24,-2.55 0.39,-5.1 0.54,-7.65 2.69,-0.85 5.4,-1.65 8.12,-2.47 -2.48,-1.08 -4.95,-2.18 -7.41,-3.26 -0.03,-2.7 -0.03,-5.39 -0.04,-8.08 -1.74,1.99 -3.47,3.98 -5.15,6.02 m -66.87,9.76 c -2.53,-0.97 -5.05,-1.91 -7.58,-2.83 1.27,2.33 2.79,4.55 3.78,7.03 -1.34,2.23 -3.06,4.2 -4.49,6.37 2.55,-0.5 5.13,-1.03 7.69,-1.6 1.41,2.23 2.92,4.42 4.63,6.46 0.22,-2.63 0.42,-5.25 0.65,-7.86 2.63,-0.72 5.26,-1.47 7.9,-2.22 -2.42,-1.12 -4.92,-2.08 -7.24,-3.37 -0.45,-2.64 -0.03,-5.4 -0.13,-8.07 -1.78,1.99 -3.5,4.05 -5.21,6.09 m 34.35,3.7 c -2.61,-1.11 -5.24,-2.19 -7.85,-3.22 1.48,2.47 3,4.93 4.47,7.43 -1.71,2.03 -3.37,4.11 -4.82,6.33 2.59,-0.42 5.17,-1 7.75,-1.6 1.44,2.28 2.93,4.54 4.44,6.8 0.38,-2.73 0.65,-5.47 0.9,-8.2 2.46,-0.67 4.92,-1.37 7.38,-2.12 -2.28,-1.36 -4.69,-2.46 -7.1,-3.51 0.22,-2.61 0.33,-5.23 0.35,-7.84 -1.98,1.85 -3.78,3.86 -5.52,5.93 z"
         id="path2"
         style="display:inline" />
      <ellipse
         style="fill:#253f90;fill-opacity:1;stroke:#000000;stroke-width:0.786671;stroke-opacity:0"
         id="path61"
         cx="1710.557"
         cy="682.01733"
         rx="83.521271"
         ry="79.84552" />
    </g>
  </g>
  <g
     id="#111012fd"
     style="display:inline">
    <path
       fill="#111012"
       opacity="1"
       d="m 1255.58,410.63 c 5.63,-5.04 13.92,-4.14 20.8,-2.9 -0.6,3.22 -1.24,6.43 -1.86,9.65 -3.68,-0.06 -8.74,-1.67 -11.17,2.07 -1.99,4.55 -1.51,9.71 -2.12,14.55 4.43,0 8.88,0 13.33,0 -0.13,3.51 -0.31,7.02 -0.56,10.52 -4.24,-0.02 -8.47,-0.02 -12.7,-0.01 0.32,13.41 0.61,26.83 0.7,40.25 -4.67,-0.01 -9.34,0 -14,0 0.11,-13.33 0.35,-26.67 0.78,-39.99 -3.1,-0.02 -6.2,-0.02 -9.28,-0.02 -0.01,-3.56 -0.01,-7.12 -0.05,-10.68 2.98,-0.07 5.97,-0.09 8.96,-0.14 0.55,-8.07 1.17,-17.21 7.17,-23.3 z"
       id="path3" />
    <path
       fill="#111012"
       opacity="1"
       d="m 1282.76,408.55 c 5.24,-0.49 10.5,-0.66 15.76,-1.05 -1.09,25.82 -0.99,51.68 0.03,77.5 -4.95,0 -9.89,0 -14.83,0 0.57,-25.48 1.62,-51.04 -0.96,-76.45 z"
       id="path4" />
    <path
       fill="#111012"
       opacity="1"
       d="m 1385.74,408.44 c 5.09,-0.35 10.2,-0.57 15.3,-0.89 -0.29,10.19 -0.34,20.38 -0.81,30.57 4.27,-3.37 9.16,-6.37 14.75,-6.66 6.7,-0.46 14.79,0.85 18.51,7.13 2.97,5.64 2.12,12.27 2.27,18.41 -0.04,9.29 0.07,18.58 -0.06,27.88 -4.83,0.2 -9.66,0.11 -14.48,0.12 0.64,-9.68 0.99,-19.38 1.03,-29.07 -0.09,-4.56 -0.59,-10.62 -5.53,-12.55 -5.35,-1.6 -11.74,-0.25 -15.84,3.56 -0.47,12.59 0.24,25.19 0.42,37.79 -4.86,0.04 -9.72,0.02 -14.56,0.03 0.65,-25.43 1.37,-50.94 -1,-76.32 z"
       id="path5" />
    <path
       fill="#111012"
       opacity="1"
       d="m 1632.72,408.55 c 5.09,-0.48 10.2,-0.68 15.32,-1.02 -0.19,10.17 -0.5,20.33 -0.63,30.5 4.41,-3.61 9.67,-6.53 15.51,-6.69 4.89,-0.11 10.12,0.67 14.26,3.48 3.85,2.73 5.46,7.63 5.34,12.21 0.01,12.66 -0.17,25.31 0.27,37.97 -4.85,0 -9.7,0 -14.54,0 0.6,-9.99 0.68,-19.99 0.89,-29.99 -0.16,-3.52 -0.48,-7.49 -2.99,-10.18 -3.64,-2.99 -8.92,-2.41 -13.08,-0.99 -2.32,0.97 -5.82,1.92 -5.3,5.16 0.12,12 0.48,24 0.48,36 -4.76,0 -9.51,0 -14.25,0 -0.09,-25.48 1.29,-51.04 -1.28,-76.45 z"
       id="path6" />
    <path
       fill="#111012"
       opacity="1"
       d="m 1754.45,408.56 c 5.16,-0.67 10.37,-0.61 15.57,-0.56 -0.65,25.66 -0.82,51.35 0.2,77 -4.92,0 -9.83,0 -14.73,0 0.33,-25.47 1.54,-51.04 -1.04,-76.44 z"
       id="path7" />
    <path
       fill="#111012"
       opacity="1"
       d="m 1316.34,409.48 c 3.75,-1.45 8.88,-0.76 11.11,2.91 2.28,4.07 1.05,9.75 -2.9,12.33 -3.76,2.59 -9.81,2.16 -12.42,-1.86 -2.97,-4.52 -0.95,-11.48 4.21,-13.38 z"
       id="path8" />
    <path
       fill="#111012"
       opacity="1"
       d="m 1536.42,416.55 c 10.9,-5.17 23.57,-4.06 35.06,-1.7 -0.62,3.92 -1.23,7.85 -1.88,11.78 -8.13,-1.4 -16.65,-3.42 -24.75,-0.74 -4.36,1.4 -4.8,7.92 -1.28,10.47 7.75,5.27 17.32,7.39 24.65,13.35 6.75,5.54 8.29,15.43 5.89,23.46 -2.31,7.1 -9.4,11.25 -16.38,12.61 -10.58,2.04 -21.73,1.75 -32.09,-1.31 0.89,-4.06 1.77,-8.12 2.61,-12.19 8.94,2.52 18.6,4.35 27.7,1.55 2.92,-0.84 5.37,-3.72 4.88,-6.87 -0.67,-3.71 -3.85,-6.25 -7.01,-7.88 -6.76,-3.44 -13.83,-6.43 -19.93,-10.99 -10.05,-7.64 -9.1,-25.88 2.53,-31.54 z"
       id="path9" />
    <path
       fill="#111012"
       opacity="1"
       d="m 1020.63,414.32 c 8.75,-0.55 17.53,-0.63 26.3,-0.56 5.99,0.26 12.27,0.79 17.66,3.66 6.73,3.9 7.65,13.33 4.65,19.88 -1.93,4.35 -6.33,6.65 -10.41,8.58 4.47,1.54 9.3,3.04 12.46,6.8 4.22,4.91 4.16,12.13 2.43,18.05 -2.35,7.36 -9.88,11.35 -16.94,13.02 -11.83,2.57 -24.06,1.81 -36.06,1.18 0.63,-23.53 0.91,-47.09 -0.09,-70.61 m 14.08,10.75 c 0.13,6.14 0.46,12.28 0.59,18.42 4.44,-0.04 9.03,0.42 13.33,-1.05 2.69,-0.81 5.59,-2.17 6.74,-4.93 1.49,-3.96 0.7,-9.38 -3.35,-11.51 -5.37,-2.73 -11.61,-1.74 -17.31,-0.93 m 0.29,28.74 c 0.29,6.87 0.45,13.74 0.53,20.62 6.63,0.5 13.7,0.9 19.88,-2.01 5.8,-2.8 6.23,-12.28 0.69,-15.57 -6.29,-3.88 -14.02,-3.47 -21.1,-3.04 z"
       id="path10" />
    <path
       fill="#111012"
       opacity="1"
       d="m 1089.82,438.86 c 4,-4.68 9.97,-7.37 16.07,-7.76 7.44,-0.61 16.1,0.78 20.89,7.11 5.02,6.42 5.29,15.03 4.31,22.78 -11.53,0.12 -23.05,0.47 -34.57,0.63 1.14,6.02 5.31,11.77 11.51,13.23 7.49,1.62 15.19,-0.11 22.55,-1.67 -0.36,3.67 -0.72,7.34 -1.14,11.01 -9.06,2.33 -18.73,3.67 -27.94,1.39 -9.24,-2.29 -16.72,-10.24 -18.55,-19.56 -1.9,-9.45 0.43,-19.88 6.87,-27.16 m 11.95,3.88 c -3.28,2.4 -4.04,6.67 -5.41,10.24 7.43,0.02 14.87,0.04 22.31,-0.01 -0.45,-3.34 -0.68,-7.04 -3.18,-9.58 -3.6,-3.5 -9.73,-3.43 -13.72,-0.65 z"
       id="path11" />
    <path
       fill="#111012"
       opacity="1"
       d="m 1348.01,435.99 c 8.43,-5.77 19.28,-5.34 28.87,-3.32 -0.57,3.78 -1.2,7.56 -1.84,11.33 -5.99,-1.53 -12.84,-3.1 -18.44,0.47 -10.92,6.95 -7.86,26.56 4.45,30.23 5.87,1.73 11.95,-0.2 17.8,-1.12 -0.58,3.48 0.3,7.71 -1.53,10.71 -12.14,4.73 -28.41,3.05 -36.43,-8.23 -9.2,-12.33 -5.54,-31.55 7.12,-40.07 z"
       id="path12" />
    <path
       fill="#111012"
       opacity="1"
       d="m 1450.62,441.55 c 3.68,-5.53 9.68,-9.42 16.31,-10.23 7.79,-1.08 17.03,-0.03 22.38,6.41 5.28,6.44 5.76,15.34 4.67,23.26 -11.4,0.05 -22.79,0.62 -34.19,0.51 0.57,6.23 5.06,11.93 11.24,13.38 7.46,1.58 15.1,-0.13 22.42,-1.69 -0.35,3.6 -0.68,7.21 -0.97,10.83 -8.56,2.45 -17.7,3.66 -26.5,1.91 -6.71,-1.4 -13.21,-5.16 -16.71,-11.2 -5.84,-10.1 -5.54,-23.65 1.35,-33.18 m 13.02,2.15 c -2.54,2.45 -3.3,6.03 -4.28,9.28 7.43,0.03 14.87,0.04 22.31,-0.01 -0.55,-3.04 -0.58,-6.46 -2.71,-8.92 -3.77,-4.39 -11.3,-4.41 -15.32,-0.35 z"
       id="path13" />
    <path
       fill="#111012"
       opacity="1"
       d="m 1598.12,434.18 c 8.02,-3.78 17.35,-3.51 25.77,-1.3 -0.59,3.71 -1.2,7.42 -1.8,11.14 -6.44,-1.59 -14.25,-3.58 -19.85,1.19 -8.33,7.69 -6.54,23.54 3.72,28.75 6.34,2.76 13.41,0.48 19.93,-0.39 -0.29,3.52 -0.6,7.05 -0.91,10.58 -8.32,3.45 -17.96,3.5 -26.35,0.3 -9.43,-3.65 -15.83,-13.42 -15.92,-23.46 -0.54,-10.89 5.51,-22 15.41,-26.81 z"
       id="path14" />
    <path
       fill="#111012"
       opacity="1"
       d="m 1788.16,438.16 c 4.95,-5.48 12.64,-7.55 19.83,-7.17 6.38,0.17 13.29,2.36 16.99,7.93 4.57,6.38 4.44,14.58 3.98,22.08 -11.51,0.06 -23.01,0.54 -34.51,0.57 0.78,5.97 4.86,11.53 10.81,13.14 7.61,1.88 15.51,0.08 23,-1.57 -0.36,3.65 -0.71,7.31 -1.07,10.97 -9.11,2.46 -18.82,3.64 -28.1,1.45 -7.57,-1.83 -14.01,-7.5 -16.96,-14.68 -4.41,-10.85 -2.15,-24.23 6.03,-32.72 m 10.92,4.93 c -3.02,2.39 -4.01,6.3 -4.81,9.88 7.28,0.06 14.58,0.02 21.88,0.02 -0.22,-3.01 -0.32,-6.29 -2.34,-8.73 -3.37,-4.53 -10.55,-4.54 -14.73,-1.17 z"
       id="path15" />
    <path
       fill="#111012"
       opacity="1"
       d="m 1138.93,433.51 c 4.63,-0.45 9.27,-0.95 13.9,-1.45 0.36,2.28 0.69,4.56 1.05,6.84 2.81,-2.6 5.48,-5.67 9.21,-6.97 4.49,-1.23 9.12,0.1 13.55,1.02 -1.08,4.29 -2.15,8.57 -3.19,12.87 -4.45,-0.58 -9.26,-2.06 -13.56,-0.02 -2.83,1.12 -4.66,4.03 -4.8,7.03 -0.42,10.72 0.39,21.44 0.16,32.17 -4.86,0 -9.7,0 -14.55,0 0.69,-17.16 2.08,-34.58 -1.77,-51.49 z"
       id="path16" />
    <path
       fill="#111012"
       opacity="1"
       d="m 1310.31,433.63 c 5.13,-0.47 10.26,-0.95 15.39,-1.5 0.13,17.62 0.02,35.25 0.06,52.87 -4.8,0 -9.59,0 -14.38,0 0.77,-17.11 1.36,-34.36 -1.07,-51.37 z"
       id="path17" />
    <path
       fill="#111012"
       opacity="1"
       d="m 1693.23,433.49 c 5.01,0 10.02,-0.02 15.05,0.04 -0.61,10.84 -1.44,21.78 0,32.6 0.49,3.29 1.58,7.2 4.98,8.58 4.02,1.56 8.5,0.37 12.38,-1.11 2.31,-0.8 2.07,-3.66 2.14,-5.61 -0.28,-11.5 -0.6,-23 -0.53,-34.49 4.84,-0.01 9.68,-0.01 14.54,0 -0.71,17.16 -1.03,34.41 0.95,51.5 -4.32,0 -8.63,0 -12.93,0 -0.36,-1.38 -0.71,-2.76 -1.02,-4.13 -4.98,3.37 -10.7,6.1 -16.85,5.88 -5.31,-0.18 -11.48,-1.35 -14.57,-6.15 -3.62,-5.85 -3.21,-13.02 -3.51,-19.63 -0.16,-9.16 -0.72,-18.32 -0.63,-27.48 z"
       id="path18" />
    <path
       fill="#111012"
       opacity="1"
       d="m 1181.8,433.5 c 4.99,-0.01 9.98,-0.01 14.98,0 0.16,10.18 -1.1,20.39 -0.19,30.55 0.63,3.77 0.94,8.71 4.94,10.51 5,1.82 10.56,0.28 14.98,-2.39 -0.55,-12.88 -0.32,-25.78 -0.81,-38.67 4.85,-0.01 9.72,-0.01 14.58,0 -0.41,17.15 -0.95,34.36 1.04,51.44 -4.26,0.25 -8.52,0.45 -12.77,0.62 -0.38,-1.56 -0.75,-3.13 -1.1,-4.68 -5.21,3.39 -11.14,6.24 -17.51,5.86 -5.93,-0.19 -13.03,-2.21 -15.2,-8.41 -2.75,-8.48 -2.15,-17.55 -2.55,-26.34 -0.18,-6.17 -0.35,-12.33 -0.39,-18.49 z"
       id="path19" />
    <path
       fill="#111012"
       opacity="1"
       d="m 1077.4,547.55 c 5.21,-0.39 10.42,-0.69 15.65,-0.9 -0.85,25.78 -0.7,51.58 -0.02,77.35 -4.93,0 -9.86,0 -14.79,0 0.81,-25.47 1.63,-51.04 -0.84,-76.45 z"
       id="path20" />
    <path
       fill="#111012"
       opacity="1"
       d="m 1241.53,547.53 c 5.07,-0.35 10.16,-0.66 15.25,-0.91 -0.07,10.14 -0.46,20.28 -0.73,30.43 4.41,-3.27 9.32,-6.38 15,-6.54 6.18,-0.27 13.47,0.69 17.5,5.94 3.54,5.09 2.87,11.66 2.96,17.54 -0.01,9.99 -0.03,19.98 0.02,29.97 -4.78,0.06 -9.56,0.04 -14.33,0.03 0.22,-11.04 0.81,-22.08 0.48,-33.13 -0.16,-3.59 -2.04,-7.57 -5.74,-8.62 -4.54,-1.21 -9.48,-0.12 -13.53,2.1 -1.44,0.63 -1.54,2.28 -1.61,3.65 -0.31,12 0.36,24 0.2,36.01 -4.76,0 -9.5,0 -14.25,0 -0.03,-25.49 1.25,-51.05 -1.22,-76.47 z"
       id="path21" />
    <path
       fill="#111012"
       opacity="1"
       d="m 1020.73,553.23 c 14.42,0.03 28.85,0 43.27,0.01 0,4 -0.01,8 0,12.01 -9.59,-0.41 -19.19,-0.6 -28.79,-0.88 0.07,5.88 0.03,11.75 0.04,17.63 8,0.14 15.99,-0.63 24,-0.52 0,3.85 0,7.7 0,11.55 -8,-0.31 -16,-0.52 -23.99,-0.53 -0.14,6.85 0.23,13.68 0.55,20.52 10.31,-0.5 20.64,-0.56 30.95,-1.05 -0.01,3.91 -0.01,7.83 0.01,11.74 -15.24,0.75 -30.53,0.76 -45.77,0.26 -0.14,-23.58 0.3,-47.17 -0.27,-70.74 z"
       id="path22" />
    <path
       fill="#111012"
       opacity="1"
       d="m 1203.04,573.04 c 8.74,-4.52 18.97,-2.71 28.27,-1.33 -0.62,3.63 -1.26,7.26 -1.89,10.89 -6.42,-1.07 -13.2,-3.08 -19.59,-0.86 -2.65,1.18 -2.72,5.22 -0.26,6.64 5.8,3.41 12.48,5.18 18.07,8.99 8.62,5.91 7.46,21.86 -2.74,25.44 -9.76,4.04 -20.78,3.46 -30.84,0.94 0.53,-3.56 1.14,-7.11 1.8,-10.65 7.21,1.32 14.75,3.02 22.03,1.12 2.71,-0.74 3.55,-4.64 1.48,-6.48 -6.41,-5.34 -15.59,-6.48 -21.26,-12.83 -5.48,-6.7 -2.91,-18.15 4.93,-21.87 z"
       id="path23" />
    <path
       fill="#111012"
       opacity="1"
       d="m 1321.51,570.78 c 7.73,-1.73 16.4,-0.98 23.06,3.59 6.01,4.27 9.98,11.27 10.56,18.63 0.74,8.28 -0.86,17.22 -6.36,23.72 -9.94,11.9 -30.35,12.98 -41.09,1.62 -7.15,-7.43 -7.85,-18.83 -5.49,-28.38 2.23,-9.35 10.03,-16.92 19.32,-19.18 m 3.92,9.71 c -4.58,0.98 -7.46,5.18 -8.86,9.36 -3.15,7.92 -1.23,17.7 4.95,23.62 4.34,4.11 11.75,2.94 15.24,-1.69 5.3,-6.79 5.27,-16.62 1.76,-24.21 -2.17,-4.89 -7.68,-8.48 -13.09,-7.08 z"
       id="path24" />
    <path
       fill="#111012"
       opacity="1"
       d="m 1103.64,572.59 c 4.41,-0.5 8.83,-1.02 13.25,-1.54 0.41,1.93 0.81,3.85 1.23,5.79 5.78,-4.75 13.33,-7.56 20.85,-6.04 4.52,0.27 8.23,3.02 11.45,5.97 4.12,-2.84 8.5,-5.75 13.65,-6.13 6.02,-0.56 13.1,0.16 17.35,4.97 3.96,4.85 3.6,11.5 3.59,17.4 -0.06,10.31 0.06,20.61 -0.06,30.92 -4.82,0.11 -9.63,0.06 -14.43,0.07 0.86,-11.35 1.04,-22.78 0.4,-34.14 -0.01,-5.12 -4.9,-8.95 -9.89,-8.09 -3.19,0.54 -8.52,0.93 -8.72,5.13 -0.28,12.36 0.12,24.72 0.21,37.08 -4.91,0.03 -9.82,0.02 -14.72,0.02 0.45,-8.66 0.65,-17.33 0.96,-26 -0.02,-4.38 0.3,-9.07 -1.75,-13.09 -2.51,-3.3 -7.28,-3.54 -11.04,-2.88 -2.99,0.66 -7.05,2.33 -6.77,6.05 -0.04,11.97 0.49,23.94 0.3,35.92 -4.84,0 -9.67,0 -14.5,0 -0.15,-10.98 0.97,-21.96 0.35,-32.94 -0.36,-6.17 -1.21,-12.31 -1.71,-18.47 z"
       id="path25" />
    <path
       fill="#111012"
       opacity="1"
       d="m 1362.63,572.63 c 4.65,-0.52 9.32,-1.03 13.98,-1.55 0.38,2.29 0.78,4.58 1.18,6.88 2.7,-2.75 5.4,-5.91 9.29,-6.92 4.41,-1.28 9.01,-0.17 13.28,1.16 -1.03,4.24 -2.05,8.49 -3.04,12.75 -3.44,-0.5 -6.87,-1.3 -10.34,-1.13 -4.89,0.5 -8.81,5.28 -8.22,10.19 0.44,9.99 0.16,19.99 0.24,29.99 -4.8,0 -9.6,0 -14.39,0 0.46,-17.11 2.26,-34.56 -1.98,-51.37 z"
       id="path26" />
    <path
       fill="#111012"
       opacity="1"
       d="m 1405.12,572.62 c 4.52,-0.52 9.04,-1.05 13.56,-1.54 0.4,1.9 0.8,3.8 1.23,5.71 4.97,-3.62 10.76,-6.54 17.07,-6.34 5.83,-0.03 12.7,1.26 16.07,6.57 3.21,5.37 2.62,11.94 2.72,17.95 -0.1,9.65 0.16,19.3 -0.17,28.95 -4.8,0.12 -9.6,0.08 -14.39,0.07 0.36,-9.99 0.74,-19.98 0.81,-29.98 0.04,-4.09 -0.68,-9.22 -4.75,-11.27 -4.99,-2.16 -10.91,-0.6 -15.18,2.45 -1.24,0.85 -1,2.48 -1.09,3.78 -0.15,11.61 0.53,23.21 0.19,34.83 -4.89,0.58 -9.83,0.59 -14.73,0.18 1,-17.12 1.59,-34.39 -1.34,-51.36 z"
       id="path27" />
    <path
       fill="#111012"
       opacity="1"
       d="m 1384.41,685.76 c 2.85,-0.25 5.72,-0.48 8.59,-0.72 0,8.67 0,17.33 0,26 5.34,-4.07 12.05,-6.79 18.86,-5.49 5.08,0.46 10.15,3.75 11.34,8.93 1.22,6.1 0.7,12.36 0.57,18.53 -0.05,6.08 0,12.16 -0.01,18.24 -2.77,0 -5.53,-0.01 -8.27,0 -0.08,-9.08 0.57,-18.14 0.68,-27.2 -0.05,-3.69 -0.61,-8.17 -4.09,-10.25 -4.57,-2.59 -10.28,-1.65 -14.81,0.55 -1.8,0.92 -4.15,2.17 -3.97,4.55 -0.27,10.78 0.39,21.56 0.25,32.34 -2.78,0.01 -5.55,0.01 -8.3,0.02 0.1,-21.83 0.9,-43.7 -0.84,-65.5 z"
       id="path28" />
    <path
       fill="#111012"
       opacity="1"
       d="m 1485.47,685.74 c 3.18,-0.26 6.37,-0.47 9.57,-0.68 -1.15,22.04 -0.99,44.14 0.01,66.19 -3.02,0 -6.04,0 -9.04,0 0.81,-21.82 1.5,-43.73 -0.54,-65.51 z"
       id="path29" />
    <path
       fill="#111012"
       opacity="1"
       d="m 1022,690.75 c 11.41,0 22.82,-0.01 34.24,0 0,2.23 0.01,4.46 0.04,6.7 -8.84,0.12 -17.68,0.02 -26.52,0.06 -0.01,6.16 -0.01,12.32 0,18.49 7.18,0.03 14.36,-0.08 21.55,0.07 -0.05,2.22 -0.06,4.45 -0.07,6.68 -7.08,0.01 -14.16,0 -21.24,0.01 0,7.34 -0.01,14.69 0.01,22.03 9.58,-0.26 19.16,-0.48 28.74,-0.55 0,2.33 0,4.66 0.02,7 -12.26,0.02 -24.52,0.01 -36.77,0.01 0,-20.17 0,-40.33 0,-60.5 z"
       id="path30" />
    <path
       fill="#111012"
       opacity="1"
       d="m 1126.2,712.04 c 2.97,-2.59 5.94,-5.56 9.9,-6.5 3.48,-0.82 6.94,0.49 10.25,1.46 -0.64,2.43 -1.29,4.87 -1.94,7.31 -3.12,-0.62 -6.31,-1.42 -9.49,-0.94 -4.56,0.76 -8.42,4.94 -8.38,9.64 -0.3,9.42 0.42,18.83 0.21,28.25 -2.78,-0.01 -5.54,-0.02 -8.3,-0.03 0.35,-14.7 1.6,-29.59 -1.54,-44.11 2.75,-0.42 5.5,-0.85 8.27,-1.24 0.34,2.05 0.67,4.09 1.02,6.16 z"
       id="path31" />
    <path
       fill="#111012"
       opacity="1"
       d="m 1167.44,705.54 c 8.08,-2.2 17.58,0.62 22.44,7.63 4.15,5.8 4.75,13.36 3.73,20.24 -0.75,4.81 -2.74,9.52 -6.27,12.95 -6.53,6.85 -17.66,8.91 -26.08,4.43 -5.26,-2.72 -9.21,-7.85 -10.33,-13.69 -1.42,-7.13 -0.79,-14.96 2.93,-21.33 2.89,-5.06 7.94,-8.8 13.58,-10.23 m 0.9,5.97 c -2.52,0.78 -4.64,2.54 -6.16,4.66 -5.23,7.85 -4.93,19.23 0.99,26.63 4.35,5.43 13.43,5.59 17.92,0.25 6.05,-7.21 6.1,-18.45 1.19,-26.27 -2.81,-4.61 -8.76,-7.05 -13.94,-5.27 z"
       id="path32" />
    <path
       fill="#111012"
       opacity="1"
       d="m 1212.47,710.01 c 4.26,-3.03 9.25,-5.4 14.62,-5.05 8.25,-0.03 15.66,6.2 17.95,13.97 3.36,10.78 0.17,24.11 -9.36,30.74 -6.6,4.27 -15.11,3.27 -22.17,0.77 -0.02,6.77 -0.01,13.54 0,20.31 -2.86,0 -5.71,0 -8.55,0.01 0.69,-21.22 1.6,-42.58 -1.51,-63.67 2.74,-0.4 5.48,-0.81 8.24,-1.17 0.24,1.35 0.51,2.72 0.78,4.09 m 5.92,2.63 c -2.12,0.9 -4.62,2.08 -5.42,4.4 -0.64,5.31 -0.05,10.67 0.23,15.99 0.17,3.15 -0.28,6.38 0.53,9.47 0.5,2.44 3.21,3.12 5.28,3.66 5.64,1.55 12.62,-0.31 15.51,-5.72 4.52,-7.05 4.61,-16.72 -0.33,-23.56 -3.61,-4.65 -10.36,-6.34 -15.8,-4.24 z"
       id="path33" />
    <path
       fill="#111012"
       opacity="1"
       d="m 1257.38,707.35 c 8.05,-1.93 16.7,-3.16 24.79,-0.76 5.28,1.52 8.55,6.96 8.33,12.32 -0.12,10.78 0.16,21.57 0.79,32.34 -2.49,-0.01 -4.96,-0.01 -7.42,0 -0.12,-0.87 -0.37,-2.62 -0.49,-3.49 -3.87,2.18 -7.9,4.43 -12.44,4.69 -4.67,0.34 -10.08,-0.2 -13.42,-3.86 -4.83,-5.71 -3.47,-15.11 2.47,-19.52 6.59,-4.97 15.33,-4.22 23.08,-5.29 -0.16,-3.52 -0.04,-8.11 -3.72,-9.94 -7.2,-3.06 -15.24,-1.09 -22.64,0.12 0.2,-2.21 0.44,-4.41 0.67,-6.61 m 8.03,25.9 c -3.59,2.64 -4.25,9.13 0.03,11.43 5.64,2.29 12.9,1.39 17.39,-2.81 0.4,-4.1 0.07,-8.23 0.17,-12.34 -5.93,0.44 -12.59,-0.06 -17.59,3.72 z"
       id="path34" />
    <path
       fill="#111012"
       opacity="1"
       d="m 1350.02,710.06 c 6.74,-5.31 15.94,-5.49 24,-3.77 -0.32,2.53 -0.72,5.07 -1.22,7.58 -5.67,-1.27 -12.18,-3 -17.41,0.52 -9.92,6.91 -8.34,24.53 2.64,29.62 5.59,2.74 11.94,1.25 17.75,0.13 -0.25,2.38 0.77,6.14 -2.11,7.23 -9.38,2.93 -20.88,1.16 -27.61,-6.43 -8.51,-10.04 -6.58,-26.97 3.96,-34.88 z"
       id="path35" />
    <path
       fill="#111012"
       opacity="1"
       d="m 1513.32,710.28 c 7.38,-7.29 21.1,-7.75 27.98,0.44 4.38,5.16 4.07,12.3 3.96,18.65 -10.5,0.18 -20.99,0.59 -31.49,0.66 0.51,5.82 3.82,11.46 9.28,13.9 6.77,3.06 14.38,1.27 21.4,0.18 -0.68,2.57 0.29,7.39 -3.51,7.61 -6.67,1.19 -13.69,1.51 -20.22,-0.52 -6.83,-2.14 -12.31,-7.97 -14.02,-14.92 -2.09,-9.02 -0.09,-19.34 6.62,-26 m 6.15,3.2 c -3.43,2.48 -4.89,6.67 -5.21,10.75 7.71,0.05 15.43,-0.27 23.14,-0.56 -0.28,-3.21 -0.54,-6.67 -2.65,-9.26 -3.75,-4.35 -10.92,-4.41 -15.28,-0.93 z"
       id="path36" />
    <path
       fill="#111012"
       opacity="1"
       d="m 1308.42,707.41 c 6.95,-3.26 14.92,-1.8 22.18,-0.51 -0.45,2.22 -0.88,4.46 -1.35,6.69 -5.47,-1.24 -11.27,-2.48 -16.8,-0.98 -3.13,0.71 -4.88,5 -2.38,7.34 5.61,5.25 14.32,5.67 19.54,11.5 5.14,5.91 2.68,16.73 -4.92,19.31 -7.77,2.55 -16.19,1.56 -24.06,0.04 0.47,-2.35 0.98,-4.69 1.5,-7.03 6.33,1.83 13.29,3.34 19.7,1.04 3.34,-1.15 4.38,-5.95 1.54,-8.18 -5.95,-4.67 -14.47,-5.42 -19.47,-11.45 -4.49,-5.64 -1.86,-14.77 4.52,-17.77 z"
       id="path37" />
    <path
       fill="#111012"
       opacity="1"
       d="m 1067.96,707.24 c 2.93,0 5.86,0 8.8,0 0.07,9.28 -0.14,18.56 0.08,27.83 0.36,3.7 1.16,8.59 5.25,9.91 4.46,1.11 9.37,0.63 13.52,-1.37 2.43,-0.78 2.82,-3.38 2.67,-5.59 -0.27,-10.34 -0.31,-20.68 -0.37,-31.02 2.77,-0.01 5.55,-0.01 8.34,0 0.05,14.75 -0.76,29.53 0.81,44.24 -2.44,0 -4.87,0.01 -7.29,0.02 -0.38,-1.2 -0.74,-2.39 -1.08,-3.58 -6.55,4.72 -15.34,6.36 -22.96,3.43 -3.72,-1.43 -5.86,-5.23 -6.4,-9.01 -1.75,-11.55 -0.06,-23.28 -1.37,-34.86 z"
       id="path38" />
    <path
       fill="#111012"
       opacity="1"
       d="m 1435.45,707.3 c 2.84,-0.23 5.69,-0.38 8.55,-0.57 0.22,11.04 -1.29,22.26 1.29,33.13 0.58,2.8 2.89,5.14 5.79,5.46 4.39,0.6 9.09,0.04 12.98,-2.17 1.93,-0.97 1.73,-3.37 1.76,-5.17 -0.1,-10.21 -0.42,-20.42 -0.38,-30.63 2.85,-0.27 5.73,-0.45 8.61,-0.65 -0.62,14.85 -0.93,29.75 0.59,44.57 -2.49,-0.02 -4.96,-0.03 -7.43,-0.03 -0.19,-0.87 -0.59,-2.62 -0.79,-3.5 -4.93,3.01 -10.53,5.38 -16.43,4.77 -5.12,-0.09 -11.16,-2.35 -12.45,-7.87 -2.81,-12.26 -0.61,-24.95 -2.09,-37.34 z"
       id="path39" />
  </g>
  <g
     id="#fdcc0fff"
     style="display:inline">
    <path
       fill="#fdcc0f"
       opacity="1"
       d="m 245.29,489.23 c 43.18,-11.32 89.16,-12.51 132.67,-2.24 40.75,9.5 78.96,29.09 111.04,55.88 48.27,40.39 83.56,96.73 96.87,158.4 -6.27,-17.6 -13.58,-34.92 -23.4,-50.86 -19.37,-32.34 -47.63,-59.14 -80.7,-77.19 -33.19,-18.58 -71.74,-27.54 -109.72,-24.78 -40.79,2.51 -80.92,17.04 -113.09,42.4 -30.53,23.92 -55.09,55.65 -69.62,91.68 -8.92,21.82 -14.08,45.05 -16.35,68.48 -44.84,0 -89.68,0 -134.52,0 3.24,-41.41 13.88,-82.47 33.24,-119.32 18.15,-34.64 43.46,-65.42 73.44,-90.46 29.1,-24.3 63.45,-42.36 100.14,-51.99 z"
       id="path40" />
    <path
       fill="#fdcc0f"
       opacity="1"
       d="m 1696.8754,614.71764 c 1.78,-2.11 3.58,-4.21 5.37,-6.33 -0.11,2.8 -0.18,5.61 -0.32,8.42 2.56,1.06 5.14,2.09 7.72,3.16 -2.62,0.9 -5.36,1.47 -7.87,2.6 -0.63,2.64 -0.73,5.37 -1,8.07 -1.53,-2.32 -3.05,-4.63 -4.59,-6.93 -2.64,0.64 -5.29,1.23 -7.95,1.75 1.63,-2.16 3.33,-4.28 5.09,-6.35 -1.44,-2.48 -2.89,-4.95 -4.25,-7.47 2.6,1 5.19,2.05 7.8,3.08 z"
       id="path41" />
    <path
       fill="#fdcc0f"
       opacity="1"
       d="m 1753.1652,615.64362 c 1.68,-1.95 3.38,-3.89 5.08,-5.83 0.02,2.63 0.04,5.26 0.06,7.9 2.5,1.07 5,2.16 7.49,3.3 -2.61,0.81 -5.24,1.56 -7.84,2.33 -0.26,2.77 -0.58,5.54 -0.88,8.32 -1.45,-2.32 -2.9,-4.63 -4.32,-6.94 -2.81,0.55 -5.59,1.17 -8.36,1.81 1.74,-2.19 3.5,-4.38 5.29,-6.54 -1.42,-2.4 -2.84,-4.82 -4.16,-7.26 2.55,0.93 5.09,1.92 7.64,2.91 z"
       id="path42" />
    <path
       fill="#fdcc0f"
       opacity="1"
       d="m 1645.8114,598.28897 c 1.67,-2.02 3.33,-4.05 5.05,-6.04 0.01,2.69 0.03,5.39 0.04,8.1 2.41,1 4.8,2.05 7.18,3.19 -2.57,0.86 -5.15,1.65 -7.7,2.5 -0.17,2.61 -0.36,5.23 -0.62,7.84 -1.64,-2.14 -3.14,-4.38 -4.55,-6.66 -2.68,0.6 -5.34,1.25 -7.98,1.9 1.61,-2.27 3.29,-4.49 5.01,-6.67 -1.44,-2.38 -2.87,-4.76 -4.25,-7.15 2.61,0.96 5.2,1.98 7.82,2.99 z"
       id="path43" />
    <path
       fill="#fdcc0f"
       opacity="1"
       d="m 1803.8415,621.30335 c 1.65,-1.95 3.3,-3.9 5.03,-5.8 0.01,2.57 0.04,5.15 0.06,7.73 2.45,1.11 4.91,2.25 7.32,3.5 -2.59,0.8 -5.2,1.52 -7.8,2.2 -0.19,2.74 -0.39,5.48 -0.63,8.22 -1.59,-2.28 -3.13,-4.58 -4.65,-6.88 -2.63,0.65 -5.27,1.25 -7.9,1.84 1.62,-2.22 3.31,-4.4 5.03,-6.55 -1.46,-2.42 -2.91,-4.84 -4.29,-7.29 2.62,0.95 5.23,1.97 7.83,3.03 z"
       id="path44" />
    <path
       fill="#fdcc0f"
       opacity="1"
       d="m 1616.5711,635.82398 c 1.73,-1.97 3.45,-3.94 5.19,-5.9 0.01,2.66 0.02,5.33 0.04,8.01 2.41,1.08 4.82,2.19 7.15,3.48 -2.54,0.76 -5.09,1.43 -7.63,2.11 -0.27,2.61 -0.52,5.22 -0.84,7.82 -1.67,-2.03 -3.13,-4.2 -4.5,-6.42 -2.67,0.6 -5.35,1.2 -7.99,1.78 1.63,-2.22 3.34,-4.39 5.03,-6.59 -1.43,-2.34 -2.82,-4.69 -4.08,-7.1 2.55,0.91 5.07,1.87 7.63,2.81 z"
       id="path45" />
    <path
       fill="#fdcc0f"
       opacity="1"
       d="m 1810.8634,665.63664 c 1.83,-2.09 3.65,-4.19 5.46,-6.31 -0.11,2.8 -0.24,5.61 -0.35,8.42 2.49,1.09 4.98,2.19 7.49,3.29 -2.62,0.75 -5.23,1.49 -7.84,2.2 -0.32,2.68 -0.56,5.38 -0.85,8.08 -1.61,-2.17 -3.09,-4.43 -4.5,-6.71 -2.65,0.64 -5.32,1.25 -7.94,1.86 1.63,-2.22 3.29,-4.42 4.95,-6.62 -1.38,-2.33 -2.75,-4.65 -4.05,-7.01 2.55,0.91 5.07,1.85 7.63,2.8 z"
       id="path46" />
    <path
       fill="#fdcc0f"
       opacity="1"
       d="m 1617.3224,684.82864 c 1.79,-2.03 3.59,-4.07 5.42,-6.08 -0.11,2.71 -0.23,5.44 -0.33,8.17 2.57,1.12 5.16,2.25 7.75,3.36 -2.75,0.77 -5.49,1.52 -8.21,2.33 -0.22,2.78 -0.45,5.56 -0.73,8.34 -1.53,-2.33 -3.02,-4.66 -4.48,-7.01 -2.67,0.57 -5.33,1.19 -7.98,1.79 1.56,-2.24 3.25,-4.39 4.97,-6.52 -1.42,-2.34 -2.78,-4.71 -4.03,-7.14 2.55,0.87 5.07,1.83 7.62,2.76 z"
       id="path47" />
    <path
       fill="#fdcc0f"
       opacity="1"
       d="m 1781.1699,698.7401 c 1.8,-2.09 3.59,-4.19 5.45,-6.24 -0.08,2.76 -0.2,5.54 -0.31,8.31 2.58,1.09 5.16,2.19 7.76,3.31 -2.76,0.77 -5.52,1.53 -8.25,2.33 -0.17,2.64 -0.33,5.3 -0.59,7.94 -1.69,-2.13 -3.22,-4.38 -4.72,-6.63 -2.71,0.66 -5.43,1.27 -8.13,1.89 1.71,-2.23 3.48,-4.42 5.29,-6.58 -1.46,-2.41 -2.89,-4.83 -4.26,-7.26 2.59,0.93 5.17,1.93 7.76,2.93 z"
       id="path48" />
    <path
       fill="#fdcc0f"
       opacity="1"
       d="m 1639.5274,723.43605 c 2.33,-1.3 3.74,-3.94 5.64,-5.84 -0.02,2.77 -0.03,5.54 -0.02,8.32 2.33,0.93 4.65,1.89 6.95,2.96 -2.45,1.07 -5.01,1.81 -7.56,2.52 -0.23,2.77 -0.43,5.55 -0.7,8.32 -1.65,-2.27 -2.82,-5 -4.94,-6.84 -2.59,0.35 -5.09,1.04 -7.62,1.6 1.6,-2.17 3.3,-4.28 5.04,-6.35 -1.37,-2.48 -2.78,-4.92 -4.16,-7.37 2.43,0.93 4.81,2.05 7.37,2.68 z"
       id="path49" />
    <path
       fill="#fdcc0f"
       opacity="1"
       d="m 1750.0409,725.1309 c 1.68,-2.04 3.41,-4.03 5.15,-6.02 0.01,2.69 0.01,5.38 0.04,8.08 2.46,1.08 4.93,2.18 7.41,3.26 -2.72,0.82 -5.43,1.62 -8.12,2.47 -0.15,2.55 -0.3,5.1 -0.54,7.65 -1.8,-1.91 -3.24,-4.11 -4.55,-6.35 -2.67,0.56 -5.37,1.12 -8.01,1.67 1.64,-2.17 3.31,-4.32 4.95,-6.49 -1.38,-2.3 -2.69,-4.65 -3.79,-7.07 2.49,0.85 4.99,1.82 7.46,2.8 z"
       id="path50" />
    <path
       fill="#fdcc0f"
       opacity="1"
       d="m 1674.1248,750.40059 c 1.71,-2.04 3.43,-4.1 5.21,-6.09 0.1,2.67 -0.32,5.43 0.13,8.07 2.32,1.29 4.82,2.25 7.24,3.37 -2.64,0.75 -5.27,1.5 -7.9,2.22 -0.23,2.61 -0.43,5.23 -0.65,7.86 -1.71,-2.04 -3.22,-4.23 -4.63,-6.46 -2.56,0.57 -5.14,1.1 -7.69,1.6 1.43,-2.17 3.15,-4.14 4.49,-6.37 -0.99,-2.48 -2.51,-4.7 -3.78,-7.03 2.53,0.92 5.05,1.86 7.58,2.83 z"
       id="path51" />
    <path
       fill="#fdcc0f"
       opacity="1"
       d="m 1714.6617,741.102 c 1.74,-2.07 3.54,-4.08 5.52,-5.93 -0.02,2.61 -0.13,5.23 -0.35,7.84 2.41,1.05 4.82,2.15 7.1,3.51 -2.46,0.75 -4.92,1.45 -7.38,2.12 -0.25,2.73 -0.52,5.47 -0.9,8.2 -1.51,-2.26 -3,-4.52 -4.44,-6.8 -2.58,0.6 -5.16,1.18 -7.75,1.6 1.45,-2.22 3.11,-4.3 4.82,-6.33 -1.47,-2.5 -2.99,-4.96 -4.47,-7.43 2.61,1.03 5.24,2.11 7.85,3.22 z"
       id="path52" />
  </g>
  <g
     id="#53b151ff"
     style="display:inline">
    <path
       fill="#53b151"
       opacity="1"
       d="m 418.02,625.08 c 34.16,-7.39 71.1,-1.3 100.97,16.88 38.23,23.13 64.65,64.65 69.58,109.04 -25.15,0 -50.3,0 -75.45,0 -3.92,-16 -10.71,-31.41 -20.81,-44.48 -10.96,-14.2 -25.42,-25.71 -41.79,-33.05 -19.29,-8.55 -41.28,-10.93 -61.95,-6.72 -17.25,3.53 -33.52,11.59 -46.88,23.04 -14.02,11.9 -24.79,27.41 -31.72,44.4 7.29,-31.74 25.45,-61.03 51.05,-81.25 16.63,-13.34 36.12,-23.28 57,-27.86 z"
       id="path53" />
  </g>
</svg>
